%FSTAX44Y44*%
%MOMM*%
%SFA1B1*%

%IPPOS*%
%ADD14C,0.100000*%
%LNpcb1-1*%
%LPD*%
G54D14*
X00785097Y00901779D02*
D01*
X00785101Y00901691*
X0078511Y00901602*
X00785121Y00901535*
D01*
X00785086Y00901454*
X00785057Y0090137*
X00785033Y00901284*
X00785015Y00901197*
X00785004Y00901109*
X00784999Y0090102*
X00785Y00900931*
X00785007Y00900843*
X0078502Y00900755*
X0078504Y00900668*
X00785065Y00900583*
X00785096Y00900499*
X00785134Y00900419*
X00785176Y0090034*
X00785224Y00900266*
X00785277Y00900194*
X00785335Y00900127*
X00785397Y00900063*
X00785464Y00900005*
X00785535Y00899951*
X00785609Y00899902*
X00785687Y00899858*
X00785767Y0089982*
X0078585Y00899788*
X00785934Y00899761*
X00786021Y0089974*
X00786109Y00899726*
X00786197Y00899718*
X00786272Y00899715*
X00962062D02*
D01*
X00962151Y00899719*
X0096224Y00899728*
X00962327Y00899743*
X00962414Y00899765*
X00962498Y00899792*
X00962581Y00899825*
X00962661Y00899865*
X00962737Y00899909*
X00962811Y00899959*
X00962881Y00900013*
X00962947Y00900073*
X00963009Y00900137*
X00963066Y00900205*
X00963118Y00900277*
X00963166Y00900352*
X00963207Y00900431*
X00963244Y00900512*
X00963274Y00900596*
X00963299Y00900681*
X00963317Y00900768*
X00963329Y00900856*
X00963336Y00900945*
X00963336Y00900989*
Y02012652D02*
D01*
X00963346Y02012741*
X00963348Y02012828*
D01*
X00963248Y02015707*
X00962947Y02018573*
X00962446Y0202141*
X00961749Y02024205*
X00960859Y02026945*
X0095978Y02029616*
X00958517Y02032205*
X00957077Y020347*
X00955466Y02037089*
X00953692Y02039359*
X00951764Y020415*
X00949692Y02043501*
X00947485Y02045353*
X00945155Y02047046*
X00942711Y02048573*
X00941504Y02049242*
D01*
X00941503Y02049243*
X00941502Y02049244*
X009415Y02049245*
X00941499Y02049245*
X00941497Y02049246*
X00941497Y02049246*
X00941504Y02049242D02*
D01*
X00941503Y02049243*
X00941502Y02049244*
X009415Y02049245*
X00941499Y02049245*
X00941497Y02049246*
D01*
X00940947Y02049516*
X0094038Y02049746*
X00939797Y02049936*
X00939203Y02050085*
X009386Y02050192*
X00937992Y02050257*
X00937379Y02050279*
X00936767Y02050258*
X00936158Y02050195*
X00935555Y02050089*
X00934961Y02049942*
X00934378Y02049753*
X0093381Y02049524*
X00933259Y02049257*
X00932728Y02048951*
X0093222Y02048609*
X00931737Y02048233*
X00931281Y02047824*
X00930855Y02047384*
X00930461Y02046915*
X009301Y0204642*
X00929775Y02045901*
X00929487Y02045361*
X00929237Y02044802*
X00929027Y02044226*
X00928857Y02043638*
X00928729Y02043039*
X00928643Y02042433*
X009286Y02041822*
X00928599Y02041209*
X00928641Y02040598*
X00928726Y02039992*
X00928852Y02039392*
X0092902Y02038803*
X00929229Y02038228*
X00929477Y02037668*
X00929764Y02037127*
X00930088Y02036607*
X00930447Y02036111*
X0093084Y02035641*
X00931265Y020352*
X0093172Y0203479*
X00932202Y02034412*
X00932709Y02034069*
X00933239Y02033762*
X0093324Y02033763*
X00945801Y02012828D02*
D01*
X00945744Y02014483*
X0094557Y0201613*
X00945283Y02017761*
X00944882Y02019368*
X0094437Y02020943*
X0094375Y02022479*
X00943024Y02023967*
X00942196Y02025401*
X0094127Y02026774*
X00940251Y02028079*
X00939142Y0202931*
X00937951Y0203046*
X00936683Y02031525*
X00935343Y02032498*
X00933938Y02033376*
X0093324Y02033763*
X00945801Y02012828D02*
D01*
X00945805Y02012739*
X00945814Y02012651*
X00945829Y02012563*
X00945851Y02012477*
X00945878Y02012393*
X00945912Y0201231*
X00945951Y0201223*
X00945995Y02012153*
X00946001Y02012143*
X00911117Y02033688D02*
D01*
X00909684Y02032859*
X00908312Y02031931*
X00907009Y0203091*
X0090578Y020298*
X0090463Y02028607*
X00903568Y02027337*
X00902596Y02025996*
X0090172Y02024591*
X00900944Y02023128*
X00900273Y02021614*
X00899708Y02020057*
X00899254Y02018464*
X00898912Y02016844*
X00898683Y02015204*
X0089857Y02013552*
X00898572Y02011896*
X00898689Y02010244*
X00898922Y02008604*
X00899268Y02006985*
X00899727Y02005393*
X00900295Y02003838*
X00900971Y02002326*
X0090175Y02000864*
X00902629Y01999461*
X00903604Y01998123*
X0090467Y01996855*
X00905822Y01995666*
X00907054Y01994559*
X00908361Y01993541*
X00909735Y01992617*
X0091117Y01991791*
X00912659Y01991066*
X00914196Y01990448*
X00915771Y01989938*
X00917378Y0198954*
X0091901Y01989254*
X00920657Y01989083*
X00922312Y01989027*
X00923967Y01989087*
X00925614Y01989262*
X00927244Y01989552*
X00928851Y01989955*
X00930425Y01990468*
X0093196Y01991091*
X00933447Y01991818*
X00934881Y01992648*
X00936252Y01993576*
X00937556Y01994597*
X00938785Y01995707*
X00939934Y01996899*
X00940997Y01998169*
X00941969Y01999511*
X00942845Y02000916*
X0094362Y02002379*
X00944292Y02003893*
X00944856Y0200545*
X00945311Y02007042*
X00945653Y02008663*
X00945882Y02010303*
X00945995Y02011955*
X00946001Y02012143*
X00911117Y02033688D02*
D01*
X00911647Y02033995*
X00912155Y02034338*
X00912637Y02034716*
X00913091Y02035126*
X00913516Y02035567*
X00913909Y02036037*
X00914269Y02036533*
X00914593Y02037053*
X0091488Y02037594*
X00915128Y02038154*
X00915337Y02038729*
X00915505Y02039319*
X00915631Y02039918*
X00915716Y02040524*
X00915758Y02041135*
X00915763Y02041429*
D01*
X00915742Y02042041*
X00915678Y0204265*
X00915572Y02043253*
X00915423Y02043848*
X00915234Y0204443*
X00915005Y02044998*
X00914736Y02045549*
X0091443Y02046079*
X00914088Y02046587*
X00913711Y02047069*
X00913301Y02047524*
X0091286Y0204795*
X00912391Y02048343*
X00911896Y02048703*
X00911376Y02049028*
X00910836Y02049315*
X00910276Y02049564*
X00909701Y02049774*
X00909112Y02049943*
X00908513Y0205007*
X00907906Y02050155*
X00907296Y02050198*
X00906683*
X00906072Y02050155*
X00905466Y0205007*
X00904867Y02049943*
X00904278Y02049774*
X00903703Y02049564*
X00903143Y02049315*
X0090286Y02049171*
D01*
X00902859Y02049171*
X00902857Y0204917*
X00902856Y02049169*
X00902855Y02049168*
X00902853Y02049168*
X00902853Y02049167*
D01*
X00900361Y02047723*
X00897975Y02046109*
X00895707Y02044332*
X00893569Y02042401*
X00891571Y02040326*
X00889722Y02038116*
X00888032Y02035783*
X00886509Y02033338*
X00885161Y02030792*
X00883993Y02028159*
X00883011Y0202545*
X00882221Y0202268*
X00881626Y02019861*
X0088123Y02017008*
X00881033Y02014133*
X00881009Y02012752*
X00867425Y01012752D02*
D01*
X00867442Y01012279*
X00867492Y01011807*
X00867574Y0101134*
X00867688Y0101088*
X00867835Y01010429*
X00868012Y0100999*
X0086822Y01009564*
X00868458Y01009153*
X00868722Y0100876*
X00869015Y01008387*
X00869332Y01008034*
X00869673Y01007705*
X00870036Y010074*
X00870419Y01007121*
X00870821Y0100687*
X0087124Y01006648*
X00871673Y01006455*
X00872118Y01006293*
X00872574Y01006162*
X00873038Y01006064*
X00873508Y01005997*
X0087398Y01005964*
X00874454*
X00874927Y01005997*
X00875397Y01006064*
X00875861Y01006162*
X00876316Y01006293*
X00876762Y01006455*
X00877195Y01006648*
X00877613Y0100687*
X00878016Y01007121*
X00878399Y010074*
X00878762Y01007705*
X00879103Y01008034*
X0087942Y01008387*
X00879712Y0100876*
X00879977Y01009153*
X00880214Y01009564*
X00880422Y0100999*
X008806Y01010429*
X00880746Y0101088*
X00880861Y0101134*
X00880943Y01011807*
X00880993Y01012279*
X00881009Y01012752*
X00867425Y02013543D02*
D01*
X00867325Y02016422*
X00867024Y02019288*
X00866524Y02022125*
X00865827Y0202492*
X00864936Y0202766*
X00863857Y02030331*
X00862594Y0203292*
X00861154Y02035415*
X00859543Y02037804*
X00857769Y02040074*
X00855841Y02042215*
X00853769Y02044216*
X00851562Y02046068*
X00849231Y02047761*
X00846788Y02049288*
X00845581Y02049957*
D01*
X0084558Y02049958*
X00845578Y02049959*
X00845577Y0204996*
X00845575Y02049961*
X00845573Y02049961*
X00845574D02*
D01*
X00845024Y02050231*
X00844457Y02050461*
X00843874Y02050651*
X00843281Y020508*
X00842678Y02050907*
X00842068Y02050972*
X00841456Y02050994*
X00840844Y02050973*
X00840235Y0205091*
X00839632Y02050804*
X00839037Y02050657*
X00838455Y02050468*
X00837887Y02050239*
X00837336Y02049972*
X00836805Y02049666*
X00836297Y02049324*
X00835814Y02048948*
X00835358Y02048539*
X00834932Y02048099*
X00834538Y0204763*
X00834177Y02047135*
X00833852Y02046616*
X00833564Y02046076*
X00833314Y02045517*
X00833104Y02044941*
X00832934Y02044353*
X00832806Y02043754*
X0083272Y02043148*
X00832677Y02042537*
X00832676Y02041924*
X00832718Y02041313*
X00832803Y02040707*
X00832929Y02040107*
X00833097Y02039518*
X00833306Y02038943*
X00833554Y02038383*
X00833841Y02037842*
X00834165Y02037322*
X00834524Y02036826*
X00834918Y02036356*
X00835342Y02035915*
X00835797Y02035505*
X00836279Y02035127*
X00836786Y02034784*
X00837316Y02034478*
X00849877Y02013543D02*
D01*
X00849819Y02015198*
X00849647Y02016845*
X00849359Y02018476*
X00848958Y02020083*
X00848447Y02021658*
X00847826Y02023194*
X008471Y02024682*
X00846272Y02026116*
X00845346Y02027489*
X00844326Y02028794*
X00843219Y02030025*
X00842027Y02031175*
X00840759Y0203224*
X00839419Y02033213*
X00838014Y02034091*
X00837316Y02034478*
X00802433Y02012933D02*
D01*
X00802534Y0201128*
X00802749Y02009638*
X00803078Y02008016*
X0080352Y02006419*
X00804072Y02004858*
X00804732Y02003339*
X00805496Y0200187*
X00806361Y02000458*
X00807322Y01999109*
X00808374Y0199783*
X00809514Y01996629*
X00810734Y01995509*
X0081203Y01994478*
X00813394Y01993539*
X00814821Y01992698*
X00816302Y01991958*
X00817832Y01991324*
X00819402Y01990798*
X00821005Y01990382*
X00822634Y0199008*
X00824279Y01989892*
X00825933Y01989818*
X00827589Y01989861*
X00829237Y01990019*
X00830871Y01990292*
X00832481Y01990678*
X00834061Y01991175*
X00835602Y01991781*
X00837097Y01992493*
X00838539Y01993308*
X0083992Y01994221*
X00841234Y01995229*
X00842475Y01996326*
X00843636Y01997506*
X00844713Y01998765*
X00845698Y02000096*
X00846589Y02001492*
X0084738Y02002947*
X00848067Y02004454*
X00848648Y02006005*
X00849119Y02007592*
X00849478Y02009209*
X00849723Y02010847*
X00849854Y02012497*
X00849877Y02013543*
X00802433Y02012933D02*
D01*
X00802478Y0201301*
X00802518Y02013089*
X00802552Y02013172*
X00802581Y02013256*
X00802603Y02013342*
X00802619Y02013429*
X00802629Y02013518*
X00802633Y02013607*
X00802633Y02013618*
X00815194Y02034553D02*
D01*
X00813761Y02033724*
X0081239Y02032796*
X00811086Y02031774*
X00809856Y02030665*
X00808708Y02029472*
X00807645Y02028202*
X00806673Y02026861*
X00805797Y02025456*
X00805022Y02023992*
X0080435Y02022479*
X00803785Y02020922*
X00803331Y02019329*
X00802988Y02017709*
X0080276Y02016069*
X00802647Y02014417*
X00802633Y02013618*
X00815194Y02034553D02*
D01*
X00815724Y0203486*
X00816232Y02035203*
X00816714Y02035581*
X00817168Y02035991*
X00817593Y02036433*
X00817986Y02036902*
X00818346Y02037398*
X0081867Y02037918*
X00818956Y02038459*
X00819205Y02039019*
X00819414Y02039595*
X00819582Y02040183*
X00819708Y02040783*
X00819793Y02041389*
X00819835Y02042*
X00819839Y02042295*
D01*
X00819818Y02042908*
X00819754Y02043516*
X00819648Y0204412*
X008195Y02044714*
X0081931Y02045296*
X00819081Y02045864*
X00818812Y02046415*
X00818506Y02046945*
X00818164Y02047453*
X00817787Y02047935*
X00817377Y0204839*
X00816936Y02048816*
X00816467Y02049209*
X00815972Y02049569*
X00815452Y02049894*
X00814912Y02050181*
X00814352Y02050431*
X00813777Y0205064*
X00813188Y02050809*
X00812589Y02050936*
X00811982Y02051021*
X00811372Y02051064*
X00810759*
X00810148Y02051021*
X00809542Y02050936*
X00808943Y02050809*
X00808354Y0205064*
X00807779Y02050431*
X00807219Y02050181*
X00806936Y02050037*
D01*
X00806935Y02050037*
X00806934Y02050036*
X00806932Y02050035*
X00806931Y02050034*
X00806929Y02050034*
D01*
X00804437Y02048589*
X00802051Y02046975*
X00799783Y02045198*
X00797645Y02043267*
X00795647Y02041192*
X00793798Y02038982*
X00792108Y02036649*
X00790585Y02034204*
X00789237Y02031658*
X00788069Y02029025*
X00787087Y02026316*
X00786297Y02023546*
X00785703Y02020727*
X00785306Y02017874*
X00785109Y02015*
X00785085Y02013618*
D01*
X00785088Y02013529*
X00785097Y02013442*
X00785121Y00901535D02*
D01*
X00786272Y00899715D02*
X00962062D01*
X00963336Y00900989D02*
Y01075989D01*
Y02012652D02*
Y01075989D01*
X00941497Y02049246D02*
X00941504Y02049242D01*
X00941497Y02049246D02*
D01*
X0093324Y02033763D02*
D01*
X00946001Y02012143D02*
D01*
X00911117Y02033688D02*
D01*
X0090286Y02049171D02*
D01*
X00881009Y01012752D02*
Y02012752D01*
X00867425Y01012752D02*
Y02013543D01*
X00845573Y02049961D02*
X00845574D01*
X00837316Y02034478D02*
D01*
X00802433Y02012933D02*
D01*
X00815194Y02034553D02*
D01*
X00806936Y02050037D02*
D01*
X00785097Y01076779D02*
Y02013442D01*
Y00901779D02*
Y01076779D01*
M02*