%FSTAX44Y44*%
%MOMM*%
%SFA1B1*%

%IPPOS*%
%ADD13C,0.253999*%
%LNpcb1-1*%
%LPD*%
G54D13*
X00801151Y02013638D02*
D01*
X00801206Y02011894*
X00801381Y02010158*
X00801678Y02008438*
X00802094Y02006744*
X00802627Y02005082*
X00803274Y02003462*
X00804033Y0200189*
X008049Y02000376*
X0080587Y01998926*
X00806939Y01997546*
X00808102Y01996245*
X00809352Y01995028*
X00810685Y01993902*
X00812093Y01992871*
X00813569Y0199194*
X00815107Y01991115*
X00816698Y01990399*
X00818336Y01989796*
X00820011Y01989309*
X00821717Y0198894*
X00823444Y0198869*
X00825184Y01988562*
X00826929Y01988555*
X0082867Y0198867*
X00830399Y01988907*
X00832107Y01989263*
X00833787Y01989738*
X00835428Y01990328*
X00837025Y01991032*
X00838569Y01991845*
X00840052Y01992764*
X00841468Y01993785*
X00842809Y01994901*
X00844069Y01996109*
X00845241Y01997401*
X00846321Y01998772*
X00847302Y02000215*
X0084818Y02001723*
X00848951Y02003288*
X00849611Y02004904*
X00850157Y02006561*
X00850585Y02008253*
X00850895Y0200997*
X00851084Y02011705*
X00851151Y02013448*
X00851097Y02015193*
X00850921Y02016929*
X00850625Y02018648*
X00850209Y02020343*
X00849676Y02022005*
X00849029Y02023625*
X0084827Y02025196*
X00847403Y02026711*
X00846433Y02028161*
X00845364Y0202954*
X00844201Y02030842*
X0084295Y02032058*
X00841618Y02033185*
X0084021Y02034216*
X00838734Y02035147*
X00837915Y02035602*
X00866151Y02013543D02*
D01*
X00866054Y02016334*
X00865762Y0201911*
X00865277Y0202186*
X00864602Y02024569*
X00863739Y02027224*
X00862693Y02029813*
X00861469Y02032322*
X00860073Y0203474*
X00858512Y02037055*
X00856793Y02039255*
X00854925Y0204133*
X00852917Y02043269*
X00850778Y02045064*
X00848519Y02046705*
X00846151Y02048184*
X00844974Y02048837*
X00814595Y02035677D02*
D01*
X00813085Y02034803*
X0081164Y02033826*
X00810266Y0203275*
X00808971Y0203158*
X0080776Y02030324*
X0080664Y02028986*
X00805616Y02027573*
X00804693Y02026091*
X00803876Y0202455*
X00803168Y02022955*
X00802574Y02021314*
X00802095Y02019636*
X00801734Y02017929*
X00801493Y02016201*
X00801374Y0201446*
X00801359Y02013618*
X00807536Y02048913D02*
D01*
X0080512Y02047514*
X00802808Y0204595*
X0080061Y02044229*
X00798537Y02042358*
X007966Y02040347*
X00794808Y02038206*
X0079317Y02035945*
X00791694Y02033576*
X00790386Y02031109*
X00789253Y02028557*
X00788302Y02025932*
X00787536Y02023247*
X00786959Y02020516*
X00786574Y02017751*
X00786382Y02014965*
X00786359Y02013618*
X00844974Y02048837D02*
D01*
X00844504Y02049068*
X00844019Y02049264*
X00843521Y02049426*
X00843014Y02049554*
X00842498Y02049645*
X00841977Y02049701*
X00841454Y0204972*
X00840931Y02049702*
X0084041Y02049648*
X00839895Y02049558*
X00839387Y02049432*
X00838889Y0204927*
X00838403Y02049075*
X00837932Y02048846*
X00837478Y02048585*
X00837044Y02048292*
X00836631Y02047971*
X00836242Y02047621*
X00835878Y02047245*
X00835541Y02046844*
X00835233Y02046421*
X00834955Y02045977*
X00834708Y02045515*
X00834495Y02045037*
X00834315Y02044546*
X0083417Y02044042*
X00834061Y02043531*
X00833987Y02043012*
X0083395Y0204249*
X0083395Y02041966*
X00833985Y02041444*
X00834058Y02040926*
X00834166Y02040414*
X00834309Y0203991*
X00834488Y02039418*
X008347Y0203894*
X00834946Y02038477*
X00835222Y02038033*
X0083553Y02037609*
X00835866Y02037208*
X00836229Y02036831*
X00836618Y0203648*
X0083703Y02036157*
X00837463Y02035864*
X00837915Y02035602*
X00910518Y02034811D02*
D01*
X00909008Y02033937*
X00907563Y02032959*
X00906189Y02031883*
X00904894Y02030714*
X00903683Y02029457*
X00902563Y02028119*
X00901539Y02026706*
X00900616Y02025226*
X00899799Y02023684*
X00899091Y02022089*
X00898497Y02020448*
X00898018Y0201877*
X00897657Y02017063*
X00897416Y02015335*
X00897297Y02013594*
X00897299Y02011849*
X00897423Y02010109*
X00897668Y02008381*
X00898033Y02006674*
X00898516Y02004998*
X00899115Y02003359*
X00899826Y02001765*
X00900647Y02000226*
X00901574Y01998747*
X00902601Y01997337*
X00903725Y01996001*
X00904938Y01994748*
X00906236Y01993581*
X00907613Y01992509*
X00909061Y01991535*
X00910573Y01990664*
X00912142Y01989901*
X00913761Y0198925*
X00915421Y01988713*
X00917115Y01988292*
X00918834Y01987991*
X00920569Y01987811*
X00922313Y01987752*
X00924057Y01987816*
X00925792Y01988*
X0092751Y01988305*
X00929203Y0198873*
X00930862Y01989271*
X00932479Y01989926*
X00934046Y01990693*
X00935556Y01991568*
X00937002Y01992545*
X00938376Y01993621*
X00939671Y01994791*
X00940882Y01996047*
X00942001Y01997385*
X00943026Y01998798*
X00943948Y02000279*
X00944766Y02001821*
X00945473Y02003416*
X00946068Y02005056*
X00946547Y02006734*
X00946908Y02008442*
X00947148Y0201017*
X00947268Y02011911*
X00947282Y02012848*
X00903459Y02048047D02*
D01*
X00901043Y02046648*
X0089873Y02045084*
X00896533Y02043363*
X0089446Y02041492*
X00892523Y02039481*
X00890731Y0203734*
X00889093Y02035079*
X00887616Y0203271*
X00886309Y02030243*
X00885177Y02027691*
X00884225Y02025066*
X00883459Y02022382*
X00882882Y0201965*
X00882497Y02016884*
X00882305Y02014099*
X00882282Y02012752*
X00947075Y02012828D02*
D01*
X00947014Y02014572*
X00946832Y02016308*
X00946529Y02018026*
X00946107Y02019719*
X00945568Y02021379*
X00944914Y02022997*
X00944149Y02024565*
X00943277Y02026076*
X00942301Y02027523*
X00941226Y02028898*
X00940059Y02030195*
X00938804Y02031407*
X00937467Y02032529*
X00936055Y02033554*
X00934575Y02034479*
X00933839Y02034887*
X00814595Y02035677D02*
D01*
X00815048Y0203594*
X00815482Y02036233*
X00815894Y02036556*
X00816283Y02036907*
X00816646Y02037283*
X00816982Y02037685*
X00817289Y02038109*
X00817566Y02038553*
X00817811Y02039015*
X00818024Y02039494*
X00818202Y02039986*
X00818346Y0204049*
X00818454Y02041002*
X00818526Y0204152*
X00818562Y02042043*
X00818561Y02042566*
X00818524Y02043088*
X00818451Y02043607*
X00818342Y02044119*
X00818197Y02044622*
X00818017Y02045113*
X00817804Y02045591*
X00817557Y02046053*
X00817279Y02046497*
X00816971Y0204692*
X00816634Y02047321*
X0081627Y02047697*
X00815881Y02048046*
X00815468Y02048368*
X00815033Y02048661*
X0081458Y02048922*
X00814109Y02049151*
X00813623Y02049346*
X00813125Y02049507*
X00812617Y02049633*
X00812101Y02049724*
X00811581Y02049778*
X00811057Y02049796*
X00810534Y02049777*
X00810014Y02049721*
X00809498Y0204963*
X00808991Y02049502*
X00808493Y0204934*
X00808008Y02049143*
X00807537Y02048913*
X00807536*
X00940898Y02048122D02*
D01*
X00940428Y02048353*
X00939943Y02048549*
X00939445Y02048711*
X00938937Y02048839*
X00938422Y0204893*
X00937902Y02048985*
X00937378Y02049005*
X00936855Y02048987*
X00936334Y02048933*
X00935819Y02048842*
X00935311Y02048717*
X00934813Y02048555*
X00934327Y0204836*
X00933856Y02048131*
X00933403Y0204787*
X00932968Y02047577*
X00932555Y02047256*
X00932166Y02046906*
X00931802Y0204653*
X00931465Y02046129*
X00931156Y02045706*
X00930879Y02045262*
X00930632Y020448*
X00930419Y02044322*
X00930239Y02043831*
X00930094Y02043327*
X00929985Y02042816*
X00929911Y02042297*
X00929874Y02041775*
X00929873Y02041251*
X0092991Y02040729*
X00929982Y02040211*
X0093009Y02039699*
X00930234Y02039195*
X00930412Y02038703*
X00930625Y02038225*
X0093087Y02037762*
X00931146Y02037318*
X00931454Y02036894*
X0093179Y02036493*
X00932153Y02036116*
X00932541Y02035765*
X00932954Y02035442*
X00933387Y02035149*
X00933839Y02034887*
X00910518Y02034811D02*
D01*
X00910972Y02035074*
X00911405Y02035367*
X00911817Y0203569*
X00912206Y0203604*
X00912569Y02036418*
X00912905Y02036819*
X00913212Y02037243*
X00913489Y02037687*
X00913734Y0203815*
X00913947Y02038628*
X00914125Y0203912*
X00914269Y02039624*
X00914377Y02040136*
X00914449Y02040654*
X00914485Y02041177*
X00914485Y020417*
X00914448Y02042222*
X00914374Y02042741*
X00914265Y02043252*
X0091412Y02043756*
X0091394Y02044247*
X00913726Y02044725*
X0091348Y02045187*
X00913202Y02045631*
X00912894Y02046054*
X00912557Y02046455*
X00912193Y02046831*
X00911803Y02047181*
X00911391Y02047502*
X00910956Y02047794*
X00910503Y02048056*
X00910032Y02048285*
X00909546Y0204848*
X00909048Y02048641*
X0090854Y02048768*
X00908024Y02048858*
X00907504Y02048912*
X0090698Y02048929*
X00906457Y02048911*
X00905937Y02048855*
X00905421Y02048764*
X00904913Y02048637*
X00904416Y02048474*
X00903931Y02048277*
X0090346Y02048047*
X00903459*
X00962075Y02012828D02*
D01*
X00961978Y02015619*
X00961686Y02018395*
X00961201Y02021145*
X00960526Y02023854*
X00959663Y02026509*
X00958617Y02029098*
X00957393Y02031607*
X00955997Y02034025*
X00954436Y0203634*
X00952717Y0203854*
X00950849Y02040615*
X00948841Y02042554*
X00946702Y02044349*
X00944443Y0204599*
X00942075Y02047469*
X00940898Y02048122*
X00866151Y01012752D02*
D01*
X00866171Y0101219*
X0086623Y0101163*
X00866328Y01011075*
X00866464Y01010529*
X00866638Y01009994*
X00866849Y01009472*
X00867096Y01008966*
X00867377Y01008478*
X00867692Y01008011*
X00868038Y01007568*
X00868415Y01007149*
X0086882Y01006758*
X00869252Y01006396*
X00869707Y01006065*
X00870184Y01005767*
X00870682Y01005503*
X00871196Y01005274*
X00871725Y01005081*
X00872266Y01004926*
X00872817Y01004809*
X00873374Y01004731*
X00873936Y01004691*
X00874499*
X0087506Y01004731*
X00875618Y01004809*
X00876169Y01004926*
X0087671Y01005081*
X00877239Y01005274*
X00877753Y01005503*
X0087825Y01005767*
X00878728Y01006065*
X00879183Y01006396*
X00879614Y01006758*
X0088002Y01007149*
X00880396Y01007568*
X00880743Y01008011*
X00881058Y01008478*
X00881339Y01008966*
X00881586Y01009472*
X00881797Y01009994*
X00881971Y01010529*
X00882107Y01011075*
X00882205Y0101163*
X00882264Y0101219*
X00882282Y01012752*
X00786359Y01950382D02*
X00866151D01*
X00882282Y01949516D02*
X00962075D01*
Y01949591D02*
Y02012828D01*
X00882282Y01949516D02*
Y02012752D01*
X00786359Y01950382D02*
Y02013618D01*
X00866151Y01950306D02*
Y02013543D01*
Y01012752D02*
Y01075989D01*
X00882282Y01012752D02*
Y01075989D01*
X00786371Y00901779D02*
Y01076779D01*
X00786272Y00900989D02*
X00962062D01*
Y01075989*
X00882282D02*
X00962062D01*
X00786272D02*
X00866151D01*
X00786272Y00900989D02*
X00962062D01*
X00786272D02*
Y01075989D01*
X00962062Y00900989D02*
Y01075989D01*
X00786239Y00901813D02*
X00787062Y00900989D01*
X00786239Y00901813D02*
Y00972709D01*
X00962062Y00972498D02*
X00962274Y00972709D01*
X00962062Y00900989D02*
Y00972498D01*
X00787062Y00900989D02*
X00962062D01*
X01005435Y02023987D02*
Y02008752D01*
X01013052*
X01015592Y02011291*
Y0201383*
X01013052Y02016369*
X01005435*
X01013052*
X01015592Y02018908*
Y02021448*
X01013052Y02023987*
X01005435*
X01023209Y02008752D02*
X01028287D01*
X01030827Y02011291*
Y02016369*
X01028287Y02018908*
X01023209*
X0102067Y02016369*
Y02011291*
X01023209Y02008752*
X01038444Y02021448D02*
Y02018908D01*
X01035905*
X01040983*
X01038444*
Y02011291*
X01040983Y02008752*
X0105114Y02021448D02*
Y02018908D01*
X01048601*
X01053679*
X0105114*
Y02011291*
X01053679Y02008752*
X01063836D02*
X01068914D01*
X01071453Y02011291*
Y02016369*
X01068914Y02018908*
X01063836*
X01061297Y02016369*
Y02011291*
X01063836Y02008752*
X01076532D02*
Y02018908D01*
X01079071*
X0108161Y02016369*
Y02008752*
Y02016369*
X01084149Y02018908*
X01086689Y02016369*
Y02008752*
X00980043Y01997069D02*
X00977504Y01999609D01*
X00972426*
X00969886Y01997069*
Y0199453*
X00972426Y01991991*
X00977504*
X00980043Y01989452*
Y01986913*
X00977504Y01984375*
X00972426*
X00969886Y01986913*
X00987661Y01997069D02*
Y0199453D01*
X00985122*
X009902*
X00987661*
Y01986913*
X009902Y01984375*
X00997817D02*
X01002896D01*
X01000357*
Y0199453*
X00997817*
X01013052Y01984375D02*
Y01997069D01*
Y01991991*
X01010513*
X01015592*
X01013052*
Y01997069*
X01015592Y01999609*
X01025748Y01984375D02*
Y01997069D01*
Y01991991*
X01023209*
X01028287*
X01025748*
Y01997069*
X01028287Y01999609*
X01043522Y01984375D02*
X01038444D01*
X01035905Y01986913*
Y01991991*
X01038444Y0199453*
X01043522*
X01046062Y01991991*
Y01989452*
X01035905*
X0105114Y01984375D02*
Y0199453D01*
X01058758*
X01061297Y01991991*
Y01984375*
X01073993D02*
X01068914D01*
X01066375Y01986913*
Y01991991*
X01068914Y0199453*
X01073993*
X01076532Y01991991*
Y01989452*
X01066375*
X0108161Y0199453D02*
Y01984375D01*
Y01989452*
X01084149Y01991991*
X01086689Y0199453*
X01089228*
X0111208Y01997069D02*
X0111462Y01999609D01*
X01119698*
X01122237Y01997069*
Y0199453*
X01119698Y01991991*
X01117159*
X01119698*
X01122237Y01989452*
Y01986913*
X01119698Y01984375*
X0111462*
X0111208Y01986913*
X00835672Y00974332D02*
Y00959097D01*
X0084329*
X00845829Y00961636*
Y00964175*
X0084329Y00966715*
X00835672*
X0084329*
X00845829Y00969254*
Y00971793*
X0084329Y00974332*
X00835672*
X00853446Y00959097D02*
X00858525D01*
X00861064Y00961636*
Y00966715*
X00858525Y00969254*
X00853446*
X00850907Y00966715*
Y00961636*
X00853446Y00959097*
X00868681Y00971793D02*
Y00969254D01*
X00866142*
X00871221*
X00868681*
Y00961636*
X00871221Y00959097*
X00881377Y00971793D02*
Y00969254D01*
X00878838*
X00883916*
X00881377*
Y00961636*
X00883916Y00959097*
X00894073D02*
X00899152D01*
X00901691Y00961636*
Y00966715*
X00899152Y00969254*
X00894073*
X00891534Y00966715*
Y00961636*
X00894073Y00959097*
X00906769D02*
Y00969254D01*
X00909308*
X00911848Y00966715*
Y00959097*
Y00966715*
X00914387Y00969254*
X00916926Y00966715*
Y00959097*
X0081282Y00947415D02*
X0081028Y00949954D01*
X00805202*
X00802663Y00947415*
Y00944876*
X00805202Y00942336*
X0081028*
X0081282Y00939797*
Y00937258*
X0081028Y0093472*
X00805202*
X00802663Y00937258*
X00820437Y00947415D02*
Y00944876D01*
X00817898*
X00822976*
X00820437*
Y00937258*
X00822976Y0093472*
X00830594D02*
X00835672D01*
X00833133*
Y00944876*
X00830594*
X00845829Y0093472D02*
Y00947415D01*
Y00942336*
X0084329*
X00848368*
X00845829*
Y00947415*
X00848368Y00949954*
X00858525Y0093472D02*
Y00947415D01*
Y00942336*
X00855986*
X00861064*
X00858525*
Y00947415*
X00861064Y00949954*
X008763Y0093472D02*
X00871221D01*
X00868681Y00937258*
Y00942336*
X00871221Y00944876*
X008763*
X00878838Y00942336*
Y00939797*
X00868681*
X00883916Y0093472D02*
Y00944876D01*
X00891534*
X00894073Y00942336*
Y0093472*
X00906769D02*
X00901691D01*
X00899152Y00937258*
Y00942336*
X00901691Y00944876*
X00906769*
X00909308Y00942336*
Y00939797*
X00899152*
X00914387Y00944876D02*
Y0093472D01*
Y00939797*
X00916926Y00942336*
X00919465Y00944876*
X00922004*
X00944857Y0093472D02*
X00949935D01*
X00947396*
Y00949954*
X00944857Y00947415*
X00648982Y02024622D02*
Y02009387D01*
X006566*
X00659139Y02011926*
Y02014465*
X006566Y02017005*
X00648982*
X006566*
X00659139Y02019544*
Y02022083*
X006566Y02024622*
X00648982*
X00666756Y02009387D02*
X00671835D01*
X00674374Y02011926*
Y02017005*
X00671835Y02019544*
X00666756*
X00664217Y02017005*
Y02011926*
X00666756Y02009387*
X00681991Y02022083D02*
Y02019544D01*
X00679452*
X00684531*
X00681991*
Y02011926*
X00684531Y02009387*
X00694687Y02022083D02*
Y02019544D01*
X00692148*
X00697226*
X00694687*
Y02011926*
X00697226Y02009387*
X00707383D02*
X00712462D01*
X00715001Y02011926*
Y02017005*
X00712462Y02019544*
X00707383*
X00704844Y02017005*
Y02011926*
X00707383Y02009387*
X00720079D02*
Y02019544D01*
X00722618*
X00725157Y02017005*
Y02009387*
Y02017005*
X00727697Y02019544*
X00730236Y02017005*
Y02009387*
X0062359Y01997705D02*
X00621051Y02000244D01*
X00615973*
X00613434Y01997705*
Y01995166*
X00615973Y01992627*
X00621051*
X0062359Y01990087*
Y01987548*
X00621051Y0198501*
X00615973*
X00613434Y01987548*
X00631208Y01997705D02*
Y01995166D01*
X00628669*
X00633747*
X00631208*
Y01987548*
X00633747Y0198501*
X00641365D02*
X00646443D01*
X00643904*
Y01995166*
X00641365*
X006566Y0198501D02*
Y01997705D01*
Y01992627*
X00654061*
X00659139*
X006566*
Y01997705*
X00659139Y02000244*
X00669296Y0198501D02*
Y01997705D01*
Y01992627*
X00666756*
X00671835*
X00669296*
Y01997705*
X00671835Y02000244*
X0068707Y0198501D02*
X00681991D01*
X00679452Y01987548*
Y01992627*
X00681991Y01995166*
X0068707*
X0068961Y01992627*
Y01990087*
X00679452*
X00694687Y0198501D02*
Y01995166D01*
X00702305*
X00704844Y01992627*
Y0198501*
X0071754D02*
X00712462D01*
X00709922Y01987548*
Y01992627*
X00712462Y01995166*
X0071754*
X00720079Y01992627*
Y01990087*
X00709922*
X00725157Y01995166D02*
Y0198501D01*
Y01990087*
X00727697Y01992627*
X00730236Y01995166*
X00732775*
X00765784Y0198501D02*
X00755628D01*
X00765784Y01995166*
Y01997705*
X00763245Y02000244*
X00758167*
X00755628Y01997705*
M02*