%FSTAX44Y44*%
%MOMM*%
%SFA1B1*%

%IPPOS*%
%ADD18C,0.100000*%
%LNpcb1-1*%
%LPD*%
G54D18*
X-01656572Y01510656D02*
D01*
X-01701108Y01502*
X-01744931Y01490257*
X-01787829Y01475486*
X-01829592Y01457759*
X-01870016Y01437162*
X-01908905Y01413795*
X-0194607Y01387772*
X-01981328Y01359221*
X-02014509Y01328279*
X-02045451Y01295098*
X-02074003Y01259839*
X-02100026Y01222675*
X-02123393Y01183786*
X-0214399Y01143361*
X-02161717Y01101599*
X-02176488Y01058701*
X-0218823Y01014878*
X-02196476Y00972901*
X-0164834Y01463832D02*
D01*
X-01646717Y01464176*
X-01645122Y01464633*
X-01643563Y014652*
X-01642047Y01465874*
X-01640581Y01466652*
X-01639174Y0146753*
X-01637831Y01468505*
X-01636559Y01469571*
X-01635365Y01470723*
X-01634254Y01471955*
X-01633232Y01473262*
X-01632304Y01474637*
X-01631474Y01476074*
X-01630745Y01477565*
X-01630123Y01479103*
X-01629609Y01480681*
X-01629207Y0148229*
X-01628918Y01483924*
X-01628744Y01485574*
X-01628685Y01487232*
X-01628742Y01488891*
X-01628915Y01490541*
X-01629202Y01492175*
X-01629603Y01493785*
X-01630115Y01495363*
X-01630736Y01496902*
X-01631462Y01498394*
X-01632291Y01499831*
X-01633218Y01501207*
X-01634239Y01502515*
X-01635349Y01503749*
X-01636542Y01504902*
X-01637812Y01505969*
X-01639154Y01506945*
X-0164056Y01507825*
X-01642025Y01508604*
X-01643541Y0150928*
X-01645099Y01509848*
X-01646694Y01510306*
X-01648317Y01510652*
X-0164996Y01510884*
X-01651615Y01511001*
X-01653274Y01511001*
X-01654929Y01510886*
X-01656572Y01510656*
X-0164834Y01463832D02*
D01*
X-0168945Y01455841*
X-01729903Y01445002*
X-017695Y01431367*
X-01808051Y01415004*
X-01845365Y01395991*
X-01881263Y01374422*
X-01915569Y013504*
X-01948115Y01324045*
X-01978744Y01295483*
X-02007305Y01264854*
X-02033661Y01232308*
X-02057682Y01198002*
X-02079251Y01162105*
X-02098264Y0112479*
X-02114628Y0108624*
X-02128262Y01046642*
X-02139102Y0100619*
X-02146747Y00967232*
X-02196476Y00972901D02*
D01*
X-02196689Y0097117*
X-0219678Y00969427*
X-0219675Y00967682*
X-02196598Y00965944*
X-02196325Y0096422*
X-02195932Y0096252*
X-02195422Y00960851*
X-02194797Y00959222*
X-02194059Y00957641*
X-02193214Y00956115*
X-02192263Y00954651*
X-02191213Y00953258*
X-02190068Y00951941*
X-02188834Y00950707*
X-02187517Y00949562*
X-02186124Y00948512*
X-0218466Y00947561*
X-02183134Y00946715*
X-02181553Y00945978*
X-02179924Y00945353*
X-02178255Y00944842*
X-02176555Y0094445*
X-02174831Y00944177*
X-02173093Y00944025*
X-02171348Y00943994*
X-02169606Y00944086*
X-02167874Y00944298*
X-02166161Y00944631*
X-02164475Y00945083*
X-02162826Y00945651*
X-02161219Y00946333*
X-02159664Y00947125*
X-02158169Y00948024*
X-02156739Y00949025*
X-02155383Y00950123*
X-02154107Y00951313*
X-02152917Y00952589*
X-02151819Y00953945*
X-02150818Y00955374*
X-02149919Y0095687*
X-02149127Y00958425*
X-02148445Y00960031*
X-02147877Y00961681*
X-02147425Y00963366*
X-02147092Y00965079*
X-0214688Y00966811*
X-02146845Y00967247*
X-02147092Y00777358D02*
D01*
X-02147436Y00778981*
X-02147893Y00780577*
X-0214846Y00782136*
X-02149134Y00783652*
X-02149912Y00785118*
X-0215079Y00786525*
X-02151765Y00787868*
X-02152831Y00789139*
X-02153983Y00790333*
X-02155215Y00791444*
X-02156522Y00792467*
X-02157897Y00793395*
X-02159334Y00794225*
X-02160825Y00794953*
X-02162363Y00795576*
X-02163941Y00796089*
X-0216555Y00796491*
X-02167184Y0079678*
X-02168834Y00796955*
X-02170492Y00797013*
X-02172151Y00796956*
X-02173801Y00796784*
X-02175435Y00796497*
X-02177045Y00796096*
X-02178623Y00795584*
X-02180162Y00794963*
X-02181654Y00794237*
X-02183091Y00793408*
X-02184467Y00792481*
X-02185775Y0079146*
X-02187009Y0079035*
X-02188162Y00789157*
X-02189229Y00787887*
X-02190205Y00786545*
X-02191085Y00785138*
X-02191864Y00783674*
X-0219254Y00782158*
X-02193108Y00780599*
X-02193566Y00779005*
X-02193912Y00777382*
X-02194144Y00775739*
X-02194261Y00774084*
X-02194261Y00772425*
X-02194146Y0077077*
X-02193916Y00769126*
X-02147092Y00777358D02*
D01*
X-02139101Y00736248*
X-02128262Y00695796*
X-02114627Y00656198*
X-02098264Y00617648*
X-02079251Y00580333*
X-02057682Y00544436*
X-0203366Y0051013*
X-02007305Y00477584*
X-01978743Y00446955*
X-01948114Y00418393*
X-01915568Y00392038*
X-01881262Y00368017*
X-01845365Y00346447*
X-0180805Y00327434*
X-017695Y00311071*
X-01729902Y00297436*
X-0168945Y00286597*
X-01650492Y00278951*
X-01656161Y00229222D02*
D01*
X-0165443Y0022901*
X-01652687Y00228918*
X-01650942Y00228949*
X-01649204Y00229101*
X-0164748Y00229374*
X-0164578Y00229766*
X-01644111Y00230276*
X-01642482Y00230902*
X-01640901Y00231639*
X-01639375Y00232485*
X-01637911Y00233436*
X-01636518Y00234486*
X-01635201Y0023563*
X-01633967Y00236864*
X-01632822Y00238181*
X-01631772Y00239575*
X-01630821Y00241038*
X-01629975Y00242564*
X-01629238Y00244146*
X-01628613Y00245775*
X-01628102Y00247444*
X-0162771Y00249144*
X-01627437Y00250867*
X-01627285Y00252606*
X-01627254Y00254351*
X-01627346Y00256093*
X-01627558Y00257825*
X-01627891Y00259538*
X-01628343Y00261224*
X-01628911Y00262873*
X-01629593Y0026448*
X-01630385Y00266034*
X-01631284Y0026753*
X-01632285Y0026896*
X-01633383Y00270316*
X-01634573Y00271592*
X-01635849Y00272782*
X-01637205Y0027388*
X-01638634Y00274881*
X-0164013Y0027578*
X-01641685Y00276572*
X-01643291Y00277254*
X-01644941Y00277822*
X-01646626Y00278274*
X-01648339Y00278606*
X-01650071Y00278819*
X-01650507Y00278853*
X-02193916Y00769126D02*
D01*
X-0218526Y00724591*
X-02173517Y00680767*
X-02158746Y0063787*
X-02141019Y00596107*
X-02120422Y00555683*
X-02097055Y00516793*
X-02071032Y00479629*
X-02042481Y0044437*
X-02011539Y00411189*
X-01978358Y00380248*
X-01943099Y00351696*
X-01905935Y00325673*
X-01867046Y00302306*
X-01826621Y00281709*
X-01784859Y00263982*
X-01741961Y00249211*
X-01698138Y00237468*
X-01656161Y00229222*
X-01452386Y00231782D02*
D01*
X-01407851Y00240439*
X-01364027Y00252182*
X-0132113Y00266952*
X-01279367Y0028468*
X-01238943Y00305277*
X-01200053Y00328644*
X-01162889Y00354667*
X-0112763Y00383218*
X-01094449Y0041416*
X-01063508Y00447341*
X-01034956Y004826*
X-01008933Y00519764*
X-00985566Y00558653*
X-00964969Y00599077*
X-00947242Y0064084*
X-00932471Y00683738*
X-00920728Y00727561*
X-00912482Y00769537*
D01*
X-0091227Y00771269*
X-00912178Y00773012*
X-00912209Y00774757*
X-00912361Y00776495*
X-00912634Y00778218*
X-00913026Y00779919*
X-00913536Y00781587*
X-00914162Y00783216*
X-00914899Y00784798*
X-00915745Y00786324*
X-00916696Y00787788*
X-00917746Y00789181*
X-0091889Y00790498*
X-00920124Y00791732*
X-00921441Y00792877*
X-00922835Y00793927*
X-00924298Y00794877*
X-00925824Y00795723*
X-00927406Y00796461*
X-00929035Y00797086*
X-00930704Y00797596*
X-00932404Y00797989*
X-00934127Y00798262*
X-00935866Y00798414*
X-00937611Y00798444*
X-00939353Y00798353*
X-00941085Y0079814*
X-00942798Y00797807*
X-00944484Y00797356*
X-00946133Y00796788*
X-0094774Y00796106*
X-00949294Y00795314*
X-0095079Y00794415*
X-0095222Y00793414*
X-00953576Y00792316*
X-00954852Y00791126*
X-00956042Y0078985*
X-0095714Y00788494*
X-00958141Y00787064*
X-0095904Y00785569*
X-00959832Y00784014*
X-00960514Y00782408*
X-00961082Y00780758*
X-00961534Y00779072*
X-00961866Y00777359*
X-00962079Y00775627*
X-00962113Y00775191*
X-01460618Y00278606D02*
D01*
X-01419508Y00286597*
X-01379056Y00297437*
X-01339458Y00311071*
X-01300908Y00327435*
X-01263593Y00346448*
X-01227696Y00368017*
X-0119339Y00392038*
X-01160844Y00418394*
X-01130215Y00446955*
X-01101653Y00477584*
X-01075298Y00510131*
X-01051277Y00544436*
X-01029707Y00580334*
X-01010694Y00617649*
X-00994331Y00656199*
X-00980696Y00695797*
X-00969857Y00736249*
X-00962211Y00775208*
X-01460618Y00278606D02*
D01*
X-01462241Y00278262*
X-01463837Y00277806*
X-01465396Y00277239*
X-01466912Y00276565*
X-01468378Y00275787*
X-01469785Y00274908*
X-01471128Y00273934*
X-01472399Y00272868*
X-01473593Y00271716*
X-01474704Y00270483*
X-01475727Y00269176*
X-01476655Y00267801*
X-01477485Y00266365*
X-01478213Y00264874*
X-01478836Y00263336*
X-01479349Y00261758*
X-01479751Y00260148*
X-0148004Y00258515*
X-01480215Y00256865*
X-01480273Y00255206*
X-01480216Y00253548*
X-01480044Y00251898*
X-01479757Y00250264*
X-01479356Y00248654*
X-01478844Y00247075*
X-01478223Y00245537*
X-01477497Y00244045*
X-01476668Y00242608*
X-01475741Y00241232*
X-0147472Y00239924*
X-0147361Y0023869*
X-01472417Y00237537*
X-01471147Y0023647*
X-01469805Y00235494*
X-01468398Y00234614*
X-01466934Y00233834*
X-01465418Y00233159*
X-01463859Y0023259*
X-01462265Y00232132*
X-01460642Y00231786*
X-01458999Y00231555*
X-01457344Y00231438*
X-01455685Y00231437*
X-0145403Y00231552*
X-01452386Y00231782*
X-01452797Y01513216D02*
D01*
X-01454529Y01513429*
X-01456272Y0151352*
X-01458017Y0151349*
X-01459755Y01513338*
X-01461478Y01513065*
X-01463179Y01512672*
X-01464847Y01512162*
X-01466476Y01511537*
X-01468058Y01510799*
X-01469584Y01509954*
X-01471048Y01509003*
X-01472441Y01507953*
X-01473758Y01506808*
X-01474992Y01505574*
X-01476137Y01504257*
X-01477187Y01502864*
X-01478137Y015014*
X-01478983Y01499874*
X-01479721Y01498293*
X-01480346Y01496664*
X-01480856Y01494995*
X-01481249Y01493295*
X-01481522Y01491571*
X-01481674Y01489833*
X-01481704Y01488088*
X-01481613Y01486346*
X-014814Y01484614*
X-01481067Y01482901*
X-01480616Y01481215*
X-01480048Y01479566*
X-01479366Y01477959*
X-01478574Y01476404*
X-01477675Y01474909*
X-01476674Y01473479*
X-01475576Y01472123*
X-01474386Y01470847*
X-0147311Y01469657*
X-01471754Y01468559*
X-01470324Y01467558*
X-01468829Y01466659*
X-01467274Y01465867*
X-01465668Y01465185*
X-01464018Y01464617*
X-01462332Y01464165*
X-01460619Y01463832*
X-01458887Y0146362*
X-01458451Y01463585*
X-00915042Y00973312D02*
D01*
X-00923699Y01017848*
X-00935442Y01061671*
X-00950212Y01104569*
X-0096794Y01146332*
X-00988537Y01186756*
X-01011904Y01225645*
X-01037927Y0126281*
X-01066478Y01298068*
X-0109742Y01331249*
X-01130601Y01362191*
X-0116586Y01390743*
X-01203024Y01416766*
X-01241913Y01440133*
X-01282337Y0146073*
X-013241Y01478457*
X-01366998Y01493228*
X-01410821Y0150497*
X-01452797Y01513216*
X-00961866Y0096508D02*
D01*
X-00961522Y00963457*
X-00961066Y00961862*
X-00960499Y00960303*
X-00959825Y00958787*
X-00959047Y00957321*
X-00958168Y00955914*
X-00957194Y00954571*
X-00956128Y00953299*
X-00954976Y00952105*
X-00953743Y00950994*
X-00952436Y00949972*
X-00951061Y00949044*
X-00949625Y00948214*
X-00948134Y00947485*
X-00946596Y00946863*
X-00945018Y00946349*
X-00943408Y00945947*
X-00941775Y00945658*
X-00940125Y00945484*
X-00938466Y00945425*
X-00936808Y00945482*
X-00935158Y00945655*
X-00933524Y00945942*
X-00931914Y00946343*
X-00930335Y00946855*
X-00928797Y00947476*
X-00927305Y00948202*
X-00925868Y00949031*
X-00924492Y00949958*
X-00923184Y00950979*
X-0092195Y00952089*
X-00920797Y00953282*
X-0091973Y00954552*
X-00918754Y00955894*
X-00917874Y009573*
X-00917094Y00958765*
X-00916419Y00960281*
X-0091585Y00961839*
X-00915392Y00963434*
X-00915046Y00965057*
X-00914815Y009667*
X-00914698Y00968355*
X-00914697Y00970014*
X-00914812Y00971669*
X-00915042Y00973312*
X-00961866Y0096508D02*
D01*
X-00969857Y0100619*
X-00980697Y01046643*
X-00994331Y0108624*
X-01010695Y01124791*
X-01029708Y01162105*
X-01051277Y01198003*
X-01075298Y01232309*
X-01101654Y01264855*
X-01130215Y01295484*
X-01160844Y01324045*
X-01193391Y01350401*
X-01227696Y01374422*
X-01263594Y01395991*
X-01300909Y01415004*
X-01339459Y01431368*
X-01379057Y01445002*
X-01419509Y01455842*
X-01458468Y01463487*
X-01466557Y0012639D02*
D01*
X-01414815Y00134338*
X-01363753Y00145875*
X-0131362Y00160947*
X-01264661Y00179478*
X-01217113Y0020138*
X-0117121Y00226545*
X-01127173Y00254851*
X-01085218Y0028616*
X-0104555Y00320319*
X-0100836Y00357162*
X-00973832Y0039651*
X-00942132Y0043817*
X-00913416Y0048194*
X-00887823Y00527607*
X-00865478Y00574948*
X-00846489Y00623732*
X-0083095Y00673721*
X-00818936Y00724673*
X-00810505Y00776339*
X-00805698Y00828467*
X-0080454Y00880804*
X-00807036Y00933094*
X-00813173Y00985082*
X-00822921Y01036516*
X-00836234Y01087144*
X-00853045Y0113672*
X-00873274Y01185003*
X-00896822Y01231757*
X-00923574Y01276755*
X-00953399Y01319777*
X-00986153Y01360613*
X-01021676Y01399065*
X-01059795Y01434946*
X-01100323Y0146808*
X-01143065Y01498307*
X-0118781Y01525478*
X-01234342Y01549462*
X-01282434Y01570141*
X-01331851Y01587416*
X-01382353Y01601201*
X-01433693Y0161143*
X-01485621Y01618052*
X-01537886Y01621036*
X-01590231Y01620367*
X-01642401Y01616048*
X-01694144Y01608101*
X-01745206Y01596563*
X-01795339Y01581492*
X-01844298Y0156296*
X-01891846Y01541059*
X-01937749Y01515893*
X-01981786Y01487588*
X-02023741Y01456279*
X-02063409Y01422119*
X-02100598Y01385276*
X-02135127Y01345929*
X-02166827Y01304268*
X-02195543Y01260498*
X-02221136Y01214832*
X-02243481Y01167491*
X-0226247Y01118707*
X-02278009Y01068717*
X-02290023Y01017765*
X-02298454Y00966099*
X-0230326Y00913971*
X-02304419Y00861635*
X-02301923Y00809345*
X-02295786Y00757357*
X-02286038Y00705923*
X-02272725Y00655295*
X-02255913Y00605719*
X-02235684Y00557436*
X-02212137Y00510682*
X-02185385Y00465684*
X-02155559Y00422662*
X-02122805Y00381826*
X-02087282Y00343373*
X-02049164Y00307493*
X-02008635Y00274358*
X-01965894Y00244132*
X-01921149Y00216961*
X-01874617Y00192977*
X-01826525Y00172298*
X-01777108Y00155023*
X-01726606Y00141238*
X-01675266Y00131009*
X-01641762Y00126315*
X-01656572Y01510656D02*
D01*
X-02146845Y00967247D02*
X-02146747Y00967232D01*
X-01650507Y00278853D02*
X-01650492Y00278951D01*
X-00962211Y00775208D02*
X-00962113Y00775191D01*
X-00915042Y00973312D02*
D01*
X-01641979Y00054459D02*
X-01466979D01*
Y00125968*
X-01466557Y0012639*
X-01641762Y00054677D02*
Y00126315D01*
X-01641979Y00054459D02*
X-01641762Y00054677D01*
M02*