%FSTAX44Y44*%
%MOMM*%
%SFA1B1*%

%IPPOS*%
%ADD11C,6.999986*%
%ADD15C,1.999996*%
%ADD16C,0.999998*%
%ADD17C,3.999992*%
%LNpcb1-1*%
%LPD*%
G36*
X-01571979Y00054459D02*
X-01641979D01*
Y0012446*
X-01571979*
Y00054459*
G37*
G36*
X-01466979D02*
X-01536979D01*
Y0012446*
X-01466979*
Y00054459*
G37*
%LNpcb1-2*%
%LPC*%
G36*
X-01609296Y00109479D02*
X-01613546Y00108634D01*
X-0161755Y00106975*
X-01621153Y00104568*
X-01624218Y00101503*
X-01626625Y000979*
X-01628284Y00093896*
X-01629129Y00089646*
Y00087479*
Y00085312*
X-01628284Y00081062*
X-01626625Y00077058*
X-01624218Y00073455*
X-01621153Y00070391*
X-0161755Y00067983*
X-01613546Y00066324*
X-01609296Y00065479*
X-01607129*
X-01604962*
X-01600712Y00066324*
X-01596708Y00067983*
X-01593105Y0007039*
X-01590041Y00073455*
X-01587633Y00077058*
X-01585976Y00081062*
X-01585129Y00085312*
Y00087479*
Y00089646*
X-01585974Y00093896*
X-01587633Y000979*
X-01590041Y00101503*
X-01593105Y00104568*
X-01596708Y00106975*
X-01600712Y00108634*
X-01604962Y00109479*
X-01607129*
X-01609296*
G37*
G36*
X-01504296D02*
X-01508546Y00108634D01*
X-0151255Y00106975*
X-01516153Y00104568*
X-01519218Y00101503*
X-01521625Y000979*
X-01523284Y00093896*
X-01524129Y00089646*
Y00087479*
Y00085312*
X-01523284Y00081062*
X-01521625Y00077058*
X-01519218Y00073455*
X-01516153Y00070391*
X-0151255Y00067983*
X-01508546Y00066324*
X-01504296Y00065479*
X-01502129*
X-01499962*
X-01495712Y00066324*
X-01491708Y00067983*
X-01488105Y0007039*
X-01485041Y00073455*
X-01482633Y00077058*
X-01480975Y00081062*
X-01480129Y00085312*
Y00087479*
Y00089646*
X-01480974Y00093896*
X-01482633Y000979*
X-01485041Y00101503*
X-01488105Y00104568*
X-01491708Y00106975*
X-01495712Y00108634*
X-01499962Y00109479*
X-01502129*
X-01504296*
G37*
%LNpcb1-3*%
%LPD*%
G54D11*
X-01408941Y00186516D02*
D01*
X-01361533Y00198336*
X-01315065Y00213435*
X-01269764Y00231738*
X-01225849Y00253156*
X-01183536Y00277586*
X-0114303Y00304908*
X-01104528Y00334988*
X-01068219Y00367682*
X-01034278Y00402828*
X-01002872Y00440256*
X-00974154Y00479784*
X-00948262Y00521219*
X-00925324Y0056436*
X-00905451Y00608995*
X-0088874Y00654908*
X-00875273Y00701874*
X-00865114Y00749666*
X-00858315Y00798049*
X-00854906Y0084679*
Y00895649*
X-00858314Y00944389*
X-00865114Y00992773*
X-00875273Y01040565*
X-0088874Y01087531*
X-00905451Y01133444*
X-00925324Y01178079*
X-00948262Y01221219*
X-00974153Y01262654*
X-01002872Y01302182*
X-01034278Y0133961*
X-01068219Y01374757*
X-01104528Y0140745*
X-0114303Y01437531*
X-01183536Y01464853*
X-01225849Y01489282*
X-01269764Y01510701*
X-01315065Y01529004*
X-01361533Y01544102*
X-01408941Y01555922*
X-01457058Y01564407*
X-0150565Y01569514*
X-01554479Y01571219*
X-01603309Y01569514*
X-016519Y01564407*
X-01700017Y01555922*
X-01747425Y01544102*
X-01793893Y01529004*
X-01839195Y01510701*
X-01883109Y01489283*
X-01925423Y01464853*
X-01965929Y01437531*
X-0200443Y0140745*
X-0204074Y01374757*
X-0207468Y01339611*
X-02106086Y01302182*
X-02134805Y01262654*
X-02160697Y01221219*
X-02183635Y01178079*
X-02203508Y01133444*
X-02220219Y01087531*
X-02233686Y01040565*
X-02243844Y00992773*
X-02250644Y00944389*
X-02254053Y00895649*
Y0084679*
X-02250644Y0079805*
X-02243844Y00749666*
X-02233686Y00701874*
X-02220219Y00654908*
X-02203508Y00608995*
X-02183635Y0056436*
X-02160697Y0052122*
X-02134805Y00479785*
X-02106087Y00440257*
X-02074681Y00402828*
X-0204074Y00367682*
X-02004431Y00334989*
X-01965929Y00304908*
X-01925423Y00277586*
X-0188311Y00253156*
X-01839195Y00231738*
X-01793894Y00213435*
X-01747426Y00198337*
X-01700018Y00186517*
X-01700017Y00186516*
G54D15*
X-01539479Y0146558D02*
D01*
X-01539516Y01466626*
X-01539625Y01467667*
X-01539807Y01468698*
X-0154006Y01469714*
X-01540384Y0147071*
X-01540776Y0147168*
X-01541235Y01472621*
X-01541759Y01473528*
X-01542344Y01474396*
X-01542989Y01475221*
X-01543689Y01475999*
X-01544442Y01476727*
X-01545245Y014774*
X-01546091Y01478015*
X-01546979Y0147857*
X-01547904Y01479061*
X-0154886Y01479487*
X-01549844Y01479845*
X-01550851Y01480134*
X-01551875Y01480351*
X-01552912Y01480497*
X-01553956Y0148057*
X-01555003*
X-01556047Y01480497*
X-01557084Y01480351*
X-01558108Y01480134*
X-01559115Y01479845*
X-01560098Y01479487*
X-01561055Y01479061*
X-01561979Y0147857*
X-01562867Y01478015*
X-01563714Y014774*
X-01564516Y01476727*
X-01565269Y01475999*
X-0156597Y01475221*
X-01566615Y01474396*
X-015672Y01473528*
X-01567724Y01472621*
X-01568183Y0147168*
X-01568575Y0147071*
X-01568898Y01469714*
X-01569152Y01468698*
X-01569333Y01467667*
X-01569443Y01466626*
X-01569479Y0146558*
X-01584479Y00348369D02*
D01*
X-01583433Y00348406*
X-01582392Y00348515*
X-01581361Y00348697*
X-01580345Y00348951*
X-01579349Y00349274*
X-01578378Y00349666*
X-01577437Y00350125*
X-01576531Y00350649*
X-01575663Y00351234*
X-01574838Y00351879*
X-0157406Y00352579*
X-01573332Y00353332*
X-01572659Y00354134*
X-01572044Y00354982*
X-01571489Y00355869*
X-01570997Y00356794*
X-01570572Y0035775*
X-01570214Y00358734*
X-01569925Y0035974*
X-01569707Y00360765*
X-01569562Y00361801*
X-01569489Y00362846*
X-01569479Y00363369*
X-01599479D02*
D01*
X-01599443Y00362323*
X-01599333Y00361282*
X-01599151Y00360251*
X-01598898Y00359235*
X-01598575Y00358239*
X-01598182Y00357268*
X-01597724Y00356327*
X-015972Y00355421*
X-01596615Y00354553*
X-0159597Y00353728*
X-01595269Y0035295*
X-01594516Y00352222*
X-01593714Y00351549*
X-01592867Y00350934*
X-01591979Y00350379*
X-01591055Y00349888*
X-01590098Y00349462*
X-01589115Y00349103*
X-01588108Y00348815*
X-01587084Y00348597*
X-01586047Y00348451*
X-01585003Y00348379*
X-01584479Y00348369*
X-01599479Y01437591D02*
D01*
X-01599516Y01438638*
X-01599625Y01439679*
X-01599807Y0144071*
X-01600061Y01441726*
X-01600384Y01442722*
X-01600776Y01443692*
X-01601235Y01444633*
X-01601759Y0144554*
X-01602344Y01446408*
X-01602989Y01447233*
X-01603689Y01448011*
X-01604442Y01448739*
X-01605244Y01449412*
X-01606092Y01450027*
X-01606979Y01450582*
X-01607904Y01451073*
X-0160886Y01451499*
X-01609844Y01451857*
X-0161085Y01452146*
X-01611875Y01452363*
X-01612911Y01452509*
X-01613956Y01452582*
X-01614479Y01452591*
D01*
X-01615526Y01452555*
X-01616567Y01452445*
X-01617598Y01452264*
X-01618614Y0145201*
X-0161961Y01451687*
X-0162058Y01451295*
X-01621522Y01450836*
X-01622428Y01450312*
X-01623296Y01449727*
X-01624121Y01449082*
X-01624899Y01448381*
X-01625626Y01447628*
X-016263Y01446826*
X-01626915Y01445979*
X-0162747Y01445091*
X-01627961Y01444167*
X-01628387Y0144321*
X-01628745Y01442227*
X-01629034Y0144122*
X-01629252Y01440196*
X-01629397Y01439159*
X-0162947Y01438115*
X-01629479Y01437591*
X-01644479Y00348369D02*
D01*
X-01643433Y00348406*
X-01642392Y00348515*
X-01641361Y00348697*
X-01640345Y00348951*
X-01639349Y00349274*
X-01638378Y00349666*
X-01637437Y00350125*
X-01636531Y00350649*
X-01635662Y00351234*
X-01634837Y00351879*
X-01634059Y00352579*
X-01633332Y00353332*
X-01632659Y00354134*
X-01632044Y00354982*
X-01631489Y00355869*
X-01630998Y00356794*
X-01630572Y0035775*
X-01630213Y00358734*
X-01629925Y0035974*
X-01629707Y00360765*
X-01629562Y00361801*
X-01629488Y00362846*
X-01629479Y00363369*
X-01659479D02*
D01*
X-01659443Y00362323*
X-01659333Y00361282*
X-01659152Y00360251*
X-01658898Y00359235*
X-01658575Y00358239*
X-01658183Y00357268*
X-01657724Y00356327*
X-016572Y00355421*
X-01656615Y00354553*
X-0165597Y00353728*
X-01655269Y0035295*
X-01654516Y00352222*
X-01653714Y00351549*
X-01652867Y00350934*
X-01651979Y00350379*
X-01651055Y00349888*
X-01650099Y00349462*
X-01649115Y00349103*
X-01648108Y00348815*
X-01647084Y00348597*
X-01646047Y00348451*
X-01645003Y00348379*
X-01644479Y00348369*
X-01659479Y01426652D02*
D01*
X-01659516Y01427699*
X-01659625Y0142874*
X-01659807Y01429771*
X-0166006Y01430787*
X-01660384Y01431783*
X-01660776Y01432753*
X-01661235Y01433694*
X-01661759Y01434601*
X-01662344Y01435469*
X-01662989Y01436294*
X-01663689Y01437072*
X-01664442Y014378*
X-01665244Y01438473*
X-01666091Y01439088*
X-01666979Y01439643*
X-01667904Y01440134*
X-0166886Y0144056*
X-01669844Y01440918*
X-01670851Y01441207*
X-01671875Y01441425*
X-01672912Y0144157*
X-01673956Y01441643*
X-01675003*
X-01676047Y0144157*
X-01677084Y01441425*
X-01678108Y01441207*
X-01679115Y01440918*
X-01680099Y0144056*
X-01681055Y01440134*
X-01681979Y01439643*
X-01682867Y01439088*
X-01683714Y01438473*
X-01684516Y014378*
X-01685269Y01437072*
X-0168597Y01436294*
X-01686615Y01435469*
X-016872Y01434601*
X-01687724Y01433694*
X-01688183Y01432753*
X-01688575Y01431783*
X-01688898Y01430787*
X-01689152Y01429771*
X-01689333Y0142874*
X-01689443Y01427699*
X-01689479Y01426652*
X-01719479Y00393369D02*
D01*
X-01719443Y00392323*
X-01719333Y00391282*
X-01719152Y00390251*
X-01718898Y00389235*
X-01718575Y00388239*
X-01718183Y00387268*
X-01717724Y00386327*
X-017172Y00385421*
X-01716615Y00384553*
X-0171597Y00383727*
X-01715269Y00382949*
X-01714516Y00382222*
X-01713714Y00381549*
X-01712867Y00380934*
X-01711979Y00380379*
X-01711055Y00379887*
X-01710098Y00379462*
X-01709115Y00379104*
X-01708108Y00378815*
X-01707084Y00378597*
X-01706047Y00378452*
X-01705003Y00378378*
X-01703956*
X-01702912Y00378452*
X-01701875Y00378597*
X-01700851Y00378815*
X-01699844Y00379104*
X-0169886Y00379462*
X-01697904Y00379887*
X-01696979Y00380379*
X-01696091Y00380934*
X-01695245Y00381549*
X-01694442Y00382222*
X-01693689Y00382949*
X-01692989Y00383727*
X-01692344Y00384553*
X-01691759Y00385421*
X-01691235Y00386327*
X-01690776Y00387268*
X-01690384Y00388239*
X-0169006Y00389235*
X-01689807Y00390251*
X-01689625Y00391282*
X-01689516Y00392323*
X-01689479Y00393369*
X-01719479Y01409024D02*
D01*
X-01719516Y01410071*
X-01719625Y01411112*
X-01719807Y01412143*
X-0172006Y01413159*
X-01720384Y01414155*
X-01720776Y01415125*
X-01721235Y01416067*
X-01721759Y01416973*
X-01722344Y01417841*
X-01722989Y01418666*
X-01723689Y01419444*
X-01724442Y01420172*
X-01725244Y01420845*
X-01726092Y0142146*
X-01726979Y01422015*
X-01727904Y01422506*
X-0172886Y01422932*
X-01729844Y0142329*
X-0173085Y01423579*
X-01731875Y01423797*
X-01732911Y01423942*
X-01733956Y01424015*
X-01735003*
X-01736047Y01423942*
X-01737084Y01423797*
X-01738108Y01423579*
X-01739115Y0142329*
X-01740098Y01422932*
X-01741055Y01422506*
X-01741979Y01422015*
X-01742867Y0142146*
X-01743714Y01420845*
X-01744516Y01420172*
X-0174527Y01419444*
X-0174597Y01418666*
X-01746615Y01417841*
X-017472Y01416973*
X-01747723Y01416067*
X-01748182Y01415125*
X-01748575Y01414155*
X-01748898Y01413159*
X-01749152Y01412143*
X-01749333Y01411112*
X-01749443Y01410071*
X-01749479Y01409024*
X-01779479Y00393369D02*
D01*
X-01779443Y00392323*
X-01779334Y00391282*
X-01779152Y00390251*
X-01778898Y00389235*
X-01778575Y00388239*
X-01778183Y00387268*
X-01777724Y00386327*
X-017772Y00385421*
X-01776615Y00384553*
X-0177597Y00383727*
X-0177527Y00382949*
X-01774516Y00382222*
X-01773714Y00381549*
X-01772867Y00380934*
X-01771979Y00380379*
X-01771055Y00379887*
X-01770099Y00379462*
X-01769115Y00379104*
X-01768108Y00378815*
X-01767084Y00378597*
X-01766047Y00378452*
X-01765003Y00378378*
X-01763956*
X-01762911Y00378452*
X-01761875Y00378597*
X-0176085Y00378815*
X-01759844Y00379104*
X-0175886Y00379462*
X-01757904Y00379887*
X-01756979Y00380379*
X-01756091Y00380934*
X-01755244Y00381549*
X-01754443Y00382222*
X-01753689Y00382949*
X-01752989Y00383727*
X-01752344Y00384553*
X-01751759Y00385421*
X-01751235Y00386327*
X-01750776Y00387268*
X-01750384Y00388239*
X-01750061Y00389235*
X-01749807Y00390251*
X-01749625Y00391282*
X-01749516Y00392323*
X-01749479Y00393369*
X-01779479Y01384039D02*
D01*
X-01779516Y01385086*
X-01779625Y01386127*
X-01779807Y01387158*
X-0178006Y01388174*
X-01780384Y0138917*
X-01780776Y0139014*
X-01781235Y01391082*
X-01781759Y01391988*
X-01782344Y01392856*
X-01782989Y01393681*
X-01783689Y01394459*
X-01784442Y01395186*
X-01785244Y0139586*
X-01786091Y01396475*
X-01786979Y0139703*
X-01787904Y01397521*
X-0178886Y01397947*
X-01789844Y01398305*
X-01790851Y01398594*
X-01791875Y01398812*
X-01792911Y01398957*
X-01793956Y0139903*
X-01795003*
X-01796047Y01398957*
X-01797084Y01398812*
X-01798108Y01398594*
X-01799115Y01398305*
X-01800099Y01397947*
X-01801055Y01397521*
X-01801979Y0139703*
X-01802867Y01396475*
X-01803714Y0139586*
X-01804516Y01395186*
X-01805269Y01394459*
X-0180597Y01393681*
X-01806615Y01392856*
X-018072Y01391988*
X-01807724Y01391082*
X-01808183Y0139014*
X-01808575Y0138917*
X-01808898Y01388174*
X-01809152Y01387158*
X-01809333Y01386127*
X-01809443Y01385086*
X-01809479Y01384039*
X-01839479Y00423369D02*
D01*
X-01839443Y00422323*
X-01839333Y00421282*
X-01839152Y00420251*
X-01838898Y00419235*
X-01838575Y00418239*
X-01838183Y00417268*
X-01837724Y00416327*
X-018372Y00415421*
X-01836615Y00414553*
X-0183597Y00413728*
X-01835269Y00412949*
X-01834516Y00412222*
X-01833714Y00411549*
X-01832867Y00410934*
X-01831979Y00410379*
X-01831055Y00409887*
X-01830098Y00409462*
X-01829115Y00409104*
X-01828108Y00408815*
X-01827084Y00408597*
X-01826047Y00408452*
X-01825003Y00408378*
X-01823956*
X-01822912Y00408452*
X-01821875Y00408597*
X-01820851Y00408815*
X-01819844Y00409104*
X-0181886Y00409462*
X-01817904Y00409887*
X-01816979Y00410379*
X-01816091Y00410934*
X-01815245Y00411549*
X-01814442Y00412222*
X-01813689Y00412949*
X-01812989Y00413728*
X-01812344Y00414553*
X-01811759Y00415421*
X-01811235Y00416327*
X-01810776Y00417268*
X-01810384Y00418239*
X-0181006Y00419235*
X-01809807Y00420251*
X-01809625Y00421282*
X-01809516Y00422323*
X-01809479Y00423369*
X-01839479Y01350581D02*
D01*
X-01839516Y01351628*
X-01839625Y01352669*
X-01839807Y013537*
X-0184006Y01354716*
X-01840384Y01355712*
X-01840776Y01356682*
X-01841235Y01357623*
X-01841759Y0135853*
X-01842344Y01359398*
X-01842989Y01360223*
X-01843689Y01361001*
X-01844442Y01361729*
X-01845244Y01362402*
X-01846092Y01363017*
X-01846979Y01363572*
X-01847904Y01364063*
X-0184886Y01364489*
X-01849844Y01364847*
X-01850851Y01365136*
X-01851875Y01365353*
X-01852911Y01365499*
X-01853956Y01365572*
X-01855003*
X-01856047Y01365499*
X-01857084Y01365353*
X-01858108Y01365136*
X-01859115Y01364847*
X-01860098Y01364489*
X-01861055Y01364063*
X-01861979Y01363572*
X-01862867Y01363017*
X-01863714Y01362402*
X-01864516Y01361729*
X-0186527Y01361001*
X-0186597Y01360223*
X-01866615Y01359398*
X-018672Y0135853*
X-01867723Y01357623*
X-01868182Y01356682*
X-01868575Y01355712*
X-01868898Y01354716*
X-01869151Y013537*
X-01869333Y01352669*
X-01869443Y01351628*
X-01869479Y01350581*
X-01899479Y00483369D02*
D01*
X-01899443Y00482323*
X-01899333Y00481282*
X-01899152Y00480251*
X-01898898Y00479235*
X-01898575Y00478239*
X-01898183Y00477268*
X-01897724Y00476327*
X-018972Y00475421*
X-01896615Y00474553*
X-0189597Y00473728*
X-0189527Y0047295*
X-01894516Y00472222*
X-01893714Y00471549*
X-01892867Y00470934*
X-01891979Y00470379*
X-01891055Y00469888*
X-01890099Y00469462*
X-01889115Y00469103*
X-01888108Y00468815*
X-01887084Y00468597*
X-01886047Y00468451*
X-01885003Y00468379*
X-01883956*
X-01882911Y00468451*
X-01881875Y00468597*
X-0188085Y00468815*
X-01879844Y00469103*
X-0187886Y00469462*
X-01877904Y00469888*
X-01876979Y00470379*
X-01876092Y00470934*
X-01875244Y00471549*
X-01874443Y00472222*
X-01873689Y0047295*
X-01872989Y00473728*
X-01872344Y00474553*
X-01871759Y00475421*
X-01871235Y00476327*
X-01870776Y00477268*
X-01870384Y00478239*
X-01870061Y00479235*
X-01869807Y00480251*
X-01869625Y00481282*
X-01869516Y00482323*
X-01869479Y00483369*
X-01899479Y01306767D02*
D01*
X-01899516Y01307814*
X-01899625Y01308855*
X-01899807Y01309886*
X-0190006Y01310902*
X-01900384Y01311898*
X-01900776Y01312868*
X-01901235Y01313809*
X-01901759Y01314716*
X-01902344Y01315584*
X-01902989Y01316409*
X-01903689Y01317187*
X-01904442Y01317915*
X-01905244Y01318587*
X-01906091Y01319203*
X-01906979Y01319758*
X-01907904Y01320249*
X-0190886Y01320675*
X-01909844Y01321033*
X-01910851Y01321322*
X-01911875Y01321539*
X-01912911Y01321685*
X-01913956Y01321758*
X-01915003*
X-01916047Y01321685*
X-01917084Y01321539*
X-01918108Y01321322*
X-01919115Y01321033*
X-01920099Y01320675*
X-01921055Y01320249*
X-01921979Y01319758*
X-01922867Y01319203*
X-01923714Y01318587*
X-01924516Y01317915*
X-01925269Y01317187*
X-0192597Y01316409*
X-01926615Y01315584*
X-019272Y01314716*
X-01927724Y01313809*
X-01928183Y01312868*
X-01928575Y01311898*
X-01928898Y01310902*
X-01929152Y01309886*
X-01929333Y01308855*
X-01929443Y01307814*
X-01929479Y01306767*
X-01959479Y00543369D02*
D01*
X-01959443Y00542323*
X-01959333Y00541282*
X-01959152Y00540251*
X-01958898Y00539235*
X-01958575Y00538239*
X-01958183Y00537268*
X-01957724Y00536327*
X-019572Y00535421*
X-01956615Y00534553*
X-0195597Y00533728*
X-01955269Y00532949*
X-01954516Y00532222*
X-01953714Y00531549*
X-01952867Y00530934*
X-01951979Y00530379*
X-01951055Y00529887*
X-01950098Y00529462*
X-01949115Y00529104*
X-01948108Y00528815*
X-01947084Y00528597*
X-01946047Y00528452*
X-01945003Y00528378*
X-01943956*
X-01942912Y00528452*
X-01941875Y00528597*
X-01940851Y00528815*
X-01939844Y00529104*
X-0193886Y00529462*
X-01937904Y00529887*
X-01936979Y00530379*
X-01936091Y00530934*
X-01935245Y00531549*
X-01934442Y00532222*
X-01933689Y00532949*
X-01932989Y00533728*
X-01932344Y00534553*
X-01931759Y00535421*
X-01931235Y00536327*
X-01930776Y00537268*
X-01930384Y00538239*
X-0193006Y00539235*
X-01929807Y00540251*
X-01929625Y00541282*
X-01929516Y00542323*
X-01929479Y00543369*
X-01959479Y01249148D02*
D01*
X-01959516Y01250195*
X-01959625Y01251236*
X-01959807Y01252267*
X-0196006Y01253283*
X-01960384Y01254279*
X-01960776Y01255249*
X-01961235Y01256191*
X-01961759Y01257097*
X-01962344Y01257965*
X-01962989Y0125879*
X-01963689Y01259568*
X-01964442Y01260295*
X-01965244Y01260969*
X-01966092Y01261584*
X-01966979Y01262139*
X-01967904Y0126263*
X-0196886Y01263056*
X-01969844Y01263414*
X-01970851Y01263703*
X-01971875Y01263921*
X-01972911Y01264066*
X-01973956Y01264139*
X-01975003*
X-01976047Y01264066*
X-01977084Y01263921*
X-01978108Y01263703*
X-01979115Y01263414*
X-01980098Y01263056*
X-01981055Y0126263*
X-01981979Y01262139*
X-01982867Y01261584*
X-01983714Y01260969*
X-01984516Y01260295*
X-0198527Y01259568*
X-0198597Y0125879*
X-01986615Y01257965*
X-019872Y01257097*
X-01987723Y01256191*
X-01988182Y01255249*
X-01988575Y01254279*
X-01988898Y01253283*
X-01989151Y01252267*
X-01989333Y01251236*
X-01989443Y01250195*
X-01989479Y01249148*
X-02019479Y00603369D02*
D01*
X-02019443Y00602323*
X-02019333Y00601282*
X-02019152Y00600251*
X-02018898Y00599235*
X-02018575Y00598239*
X-02018183Y00597268*
X-02017724Y00596327*
X-020172Y0059542*
X-02016615Y00594553*
X-0201597Y00593728*
X-0201527Y0059295*
X-02014516Y00592222*
X-02013714Y00591549*
X-02012867Y00590934*
X-02011979Y00590379*
X-02011055Y00589888*
X-02010098Y00589462*
X-02009115Y00589103*
X-02008108Y00588815*
X-02007084Y00588597*
X-02006047Y00588451*
X-02005003Y00588379*
X-02003956*
X-02002911Y00588451*
X-02001875Y00588597*
X-0200085Y00588815*
X-01999844Y00589103*
X-0199886Y00589462*
X-01997904Y00589888*
X-01996979Y00590379*
X-01996092Y00590934*
X-01995244Y00591549*
X-01994442Y00592222*
X-01993689Y0059295*
X-01992989Y00593728*
X-01992344Y00594553*
X-01991759Y0059542*
X-01991235Y00596327*
X-01990776Y00597268*
X-01990384Y00598239*
X-01990061Y00599235*
X-01989807Y00600251*
X-01989625Y00601282*
X-01989516Y00602323*
X-01989479Y00603369*
X-02019479Y01170215D02*
D01*
X-02019516Y01171262*
X-02019625Y01172303*
X-02019807Y01173334*
X-0202006Y0117435*
X-02020384Y01175346*
X-02020776Y01176316*
X-02021235Y01177257*
X-02021759Y01178164*
X-02022344Y01179032*
X-02022989Y01179857*
X-02023689Y01180635*
X-02024442Y01181363*
X-02025244Y01182035*
X-02026091Y01182651*
X-02026979Y01183206*
X-02027904Y01183697*
X-0202886Y01184123*
X-02029844Y01184481*
X-02030851Y0118477*
X-02031875Y01184987*
X-02032911Y01185133*
X-02033956Y01185206*
X-02035003*
X-02036047Y01185133*
X-02037084Y01184987*
X-02038108Y0118477*
X-02039115Y01184481*
X-02040099Y01184123*
X-02041055Y01183697*
X-02041979Y01183206*
X-02042867Y01182651*
X-02043714Y01182035*
X-02044516Y01181363*
X-02045269Y01180635*
X-0204597Y01179857*
X-02046615Y01179032*
X-020472Y01178164*
X-02047724Y01177257*
X-02048183Y01176316*
X-02048575Y01175346*
X-02048898Y0117435*
X-02049152Y01173334*
X-02049333Y01172303*
X-02049443Y01171262*
X-02049479Y01170215*
X-02079479Y00753369D02*
D01*
X-02079443Y00752323*
X-02079333Y00751282*
X-02079152Y00750251*
X-02078898Y00749235*
X-02078575Y00748239*
X-02078183Y00747268*
X-02077724Y00746327*
X-020772Y00745421*
X-02076615Y00744552*
X-0207597Y00743728*
X-02075269Y0074295*
X-02074516Y00742222*
X-02073714Y00741549*
X-02072867Y00740934*
X-02071979Y00740379*
X-02071055Y00739888*
X-02070098Y00739462*
X-02069115Y00739103*
X-02068108Y00738815*
X-02067084Y00738597*
X-02066047Y00738452*
X-02065003Y00738379*
X-02063956*
X-02062912Y00738452*
X-02061875Y00738597*
X-02060851Y00738815*
X-02059844Y00739103*
X-0205886Y00739462*
X-02057904Y00739888*
X-02056979Y00740379*
X-02056091Y00740934*
X-02055245Y00741549*
X-02054442Y00742222*
X-02053689Y0074295*
X-02052989Y00743728*
X-02052344Y00744552*
X-02051759Y00745421*
X-02051235Y00746327*
X-02050776Y00747268*
X-02050384Y00748239*
X-0205006Y00749235*
X-02049807Y00750251*
X-02049625Y00751282*
X-02049516Y00752323*
X-02049479Y00753369*
X-02079479Y01044881D02*
D01*
X-02079516Y01045928*
X-02079625Y01046969*
X-02079807Y01048*
X-0208006Y01049016*
X-02080384Y01050012*
X-02080776Y01050982*
X-02081235Y01051923*
X-02081759Y0105283*
X-02082344Y01053698*
X-02082989Y01054523*
X-02083689Y01055301*
X-02084442Y01056029*
X-02085245Y01056701*
X-02086092Y01057317*
X-02086979Y01057872*
X-02087904Y01058363*
X-0208886Y01058789*
X-02089844Y01059147*
X-02090851Y01059436*
X-02091875Y01059653*
X-02092911Y01059799*
X-02093956Y01059872*
X-02095003*
X-02096047Y01059799*
X-02097084Y01059653*
X-02098108Y01059436*
X-02099115Y01059147*
X-02100098Y01058789*
X-02101055Y01058363*
X-02101979Y01057872*
X-02102867Y01057317*
X-02103714Y01056701*
X-02104516Y01056029*
X-02105269Y01055301*
X-0210597Y01054523*
X-02106615Y01053698*
X-021072Y0105283*
X-02107724Y01051923*
X-02108182Y01050982*
X-02108575Y01050012*
X-02108898Y01049016*
X-02109151Y01048*
X-02109333Y01046969*
X-02109443Y01045928*
X-02109479Y01044881*
Y00723369D02*
D01*
X-02109443Y00722323*
X-02109333Y00721282*
X-02109151Y00720251*
X-02108898Y00719235*
X-02108575Y00718239*
X-02108182Y00717268*
X-02107724Y00716327*
X-021072Y0071542*
X-02106615Y00714553*
X-0210597Y00713728*
X-02105269Y0071295*
X-02104516Y00712222*
X-02103714Y00711549*
X-02102867Y00710934*
X-02101979Y00710379*
X-02101055Y00709887*
X-02100098Y00709462*
X-02099115Y00709103*
X-02098108Y00708815*
X-02097084Y00708597*
X-02096047Y00708451*
X-02095003Y00708379*
X-02094479Y00708369*
X-02049479Y00693369D02*
D01*
X-02049516Y00694416*
X-02049625Y00695457*
X-02049807Y00696488*
X-0205006Y00697504*
X-02050384Y006985*
X-02050776Y00699471*
X-02051235Y00700411*
X-02051759Y00701318*
X-02052344Y00702186*
X-02052989Y00703011*
X-02053689Y00703789*
X-02054442Y00704517*
X-02055245Y0070519*
X-02056091Y00705805*
X-02056979Y0070636*
X-02057904Y00706851*
X-0205886Y00707277*
X-02059844Y00707635*
X-02060851Y00707924*
X-02061875Y00708142*
X-02062912Y00708287*
X-02063956Y0070836*
X-02064479Y00708369*
X-02049479Y00573369D02*
D01*
X-02049443Y00572323*
X-02049333Y00571282*
X-02049152Y00570251*
X-02048898Y00569235*
X-02048575Y00568239*
X-02048183Y00567268*
X-02047724Y00566327*
X-020472Y00565421*
X-02046615Y00564553*
X-0204597Y00563728*
X-02045269Y0056295*
X-02044516Y00562222*
X-02043714Y00561549*
X-02042867Y00560934*
X-02041979Y00560379*
X-02041055Y00559887*
X-02040099Y00559462*
X-02039115Y00559104*
X-02038108Y00558815*
X-02037084Y00558597*
X-02036047Y00558452*
X-02035003Y00558379*
X-02034479Y00558369*
X-01989479Y00543369D02*
D01*
X-01989516Y00544416*
X-01989625Y00545457*
X-01989807Y00546488*
X-01990061Y00547504*
X-01990384Y005485*
X-01990776Y0054947*
X-01991235Y00550411*
X-01991759Y00551318*
X-01992344Y00552186*
X-01992989Y00553011*
X-01993689Y00553789*
X-01994442Y00554517*
X-01995244Y0055519*
X-01996092Y00555805*
X-01996979Y0055636*
X-01997904Y00556851*
X-0199886Y00557277*
X-01999844Y00557635*
X-0200085Y00557924*
X-02001875Y00558141*
X-02002911Y00558287*
X-02003956Y0055836*
X-02004479Y00558369*
X-01989479Y00513369D02*
D01*
X-01989443Y00512323*
X-01989333Y00511282*
X-01989151Y00510251*
X-01988898Y00509235*
X-01988575Y00508239*
X-01988182Y00507268*
X-01987723Y00506327*
X-019872Y00505421*
X-01986615Y00504553*
X-0198597Y00503727*
X-0198527Y00502949*
X-01984516Y00502222*
X-01983714Y00501549*
X-01982867Y00500934*
X-01981979Y00500379*
X-01981055Y00499888*
X-01980098Y00499462*
X-01979115Y00499103*
X-01978108Y00498815*
X-01977084Y00498597*
X-01976047Y00498452*
X-01975003Y00498378*
X-01974479Y00498369*
X-01929479Y00483369D02*
D01*
X-01929516Y00484416*
X-01929625Y00485457*
X-01929807Y00486488*
X-0193006Y00487504*
X-01930384Y004885*
X-01930776Y0048947*
X-01931235Y00490412*
X-01931759Y00491318*
X-01932344Y00492186*
X-01932989Y00493011*
X-01933689Y00493789*
X-01934442Y00494517*
X-01935245Y0049519*
X-01936091Y00495805*
X-01936979Y0049636*
X-01937904Y00496851*
X-0193886Y00497277*
X-01939844Y00497635*
X-01940851Y00497924*
X-01941875Y00498142*
X-01942912Y00498287*
X-01943956Y0049836*
X-01944479Y00498369*
X-01929479Y00453369D02*
D01*
X-01929443Y00452323*
X-01929333Y00451282*
X-01929152Y00450251*
X-01928898Y00449235*
X-01928575Y00448239*
X-01928183Y00447268*
X-01927724Y00446327*
X-019272Y00445421*
X-01926615Y00444553*
X-0192597Y00443728*
X-01925269Y0044295*
X-01924516Y00442222*
X-01923714Y00441549*
X-01922867Y00440934*
X-01921979Y00440379*
X-01921055Y00439887*
X-01920099Y00439462*
X-01919115Y00439104*
X-01918108Y00438815*
X-01917084Y00438597*
X-01916047Y00438452*
X-01915003Y00438379*
X-01914479Y00438369*
X-01869479Y00423369D02*
D01*
X-01869516Y00424416*
X-01869625Y00425457*
X-01869807Y00426488*
X-01870061Y00427504*
X-01870384Y004285*
X-01870776Y0042947*
X-01871235Y00430411*
X-01871759Y00431318*
X-01872344Y00432186*
X-01872989Y00433011*
X-01873689Y00433789*
X-01874443Y00434517*
X-01875244Y0043519*
X-01876092Y00435805*
X-01876979Y0043636*
X-01877904Y00436851*
X-0187886Y00437277*
X-01879844Y00437635*
X-0188085Y00437924*
X-01881875Y00438141*
X-01882911Y00438287*
X-01883956Y0043836*
X-01884479Y00438369*
X-01869479Y00393369D02*
D01*
X-01869443Y00392323*
X-01869333Y00391282*
X-01869151Y00390251*
X-01868898Y00389235*
X-01868575Y00388239*
X-01868182Y00387268*
X-01867723Y00386327*
X-018672Y00385421*
X-01866615Y00384553*
X-0186597Y00383727*
X-0186527Y00382949*
X-01864516Y00382222*
X-01863714Y00381549*
X-01862867Y00380934*
X-01861979Y00380379*
X-01861055Y00379887*
X-01860098Y00379462*
X-01859115Y00379104*
X-01858108Y00378815*
X-01857084Y00378597*
X-01856047Y00378452*
X-01855003Y00378378*
X-01854479Y00378369*
X-01809479Y00363369D02*
D01*
X-01809516Y00364416*
X-01809625Y00365457*
X-01809807Y00366488*
X-0181006Y00367504*
X-01810384Y003685*
X-01810776Y0036947*
X-01811235Y00370412*
X-01811759Y00371318*
X-01812344Y00372186*
X-01812989Y00373011*
X-01813689Y00373789*
X-01814442Y00374517*
X-01815245Y0037519*
X-01816091Y00375805*
X-01816979Y0037636*
X-01817904Y00376851*
X-0181886Y00377277*
X-01819844Y00377635*
X-01820851Y00377924*
X-01821875Y00378141*
X-01822912Y00378287*
X-01823956Y0037836*
X-01824479Y00378369*
X-01809479Y00363369D02*
D01*
X-01809443Y00362323*
X-01809333Y00361282*
X-01809152Y00360251*
X-01808898Y00359235*
X-01808575Y00358239*
X-01808183Y00357268*
X-01807724Y00356327*
X-018072Y00355421*
X-01806615Y00354553*
X-0180597Y00353728*
X-01805269Y0035295*
X-01804516Y00352222*
X-01803714Y00351549*
X-01802867Y00350934*
X-01801979Y00350379*
X-01801055Y00349888*
X-01800099Y00349462*
X-01799115Y00349103*
X-01798108Y00348815*
X-01797084Y00348597*
X-01796047Y00348451*
X-01795003Y00348379*
X-01794479Y00348369*
X-01689479Y00333369D02*
D01*
X-01689516Y00334416*
X-01689625Y00335457*
X-01689807Y00336488*
X-0169006Y00337504*
X-01690384Y003385*
X-01690776Y00339471*
X-01691235Y00340412*
X-01691759Y00341318*
X-01692344Y00342186*
X-01692989Y00343011*
X-01693689Y00343789*
X-01694442Y00344516*
X-01695245Y0034519*
X-01696091Y00345805*
X-01696979Y0034636*
X-01697904Y00346851*
X-0169886Y00347277*
X-01699844Y00347635*
X-01700851Y00347924*
X-01701875Y00348142*
X-01702912Y00348287*
X-01703956Y0034836*
X-01704479Y00348369*
X-01689479Y00333369D02*
D01*
X-01689443Y00332323*
X-01689333Y00331282*
X-01689152Y00330251*
X-01688898Y00329235*
X-01688575Y00328239*
X-01688183Y00327268*
X-01687724Y00326327*
X-016872Y0032542*
X-01686615Y00324553*
X-0168597Y00323728*
X-01685269Y0032295*
X-01684516Y00322222*
X-01683714Y00321549*
X-01682867Y00320934*
X-01681979Y00320379*
X-01681055Y00319887*
X-01680099Y00319462*
X-01679115Y00319104*
X-01678108Y00318815*
X-01677084Y00318597*
X-01676047Y00318451*
X-01675003Y00318379*
X-01674479Y00318369*
X-01569479Y00303369D02*
D01*
X-01569516Y00304416*
X-01569625Y00305457*
X-01569807Y00306488*
X-0157006Y00307504*
X-01570384Y003085*
X-01570776Y0030947*
X-01571235Y00310411*
X-01571759Y00311318*
X-01572344Y00312186*
X-01572989Y00313011*
X-01573689Y00313789*
X-01574442Y00314517*
X-01575245Y0031519*
X-01576092Y00315805*
X-01576979Y0031636*
X-01577904Y00316851*
X-0157886Y00317277*
X-01579844Y00317635*
X-01580851Y00317924*
X-01581875Y00318142*
X-01582911Y00318287*
X-01583956Y0031836*
X-01584479Y00318369*
X-01539479Y00363369D02*
D01*
X-01539443Y00362323*
X-01539333Y00361282*
X-01539152Y00360251*
X-01538898Y00359235*
X-01538575Y00358239*
X-01538183Y00357268*
X-01537724Y00356327*
X-015372Y00355421*
X-01536615Y00354553*
X-0153597Y00353728*
X-01535269Y0035295*
X-01534516Y00352222*
X-01533714Y00351549*
X-01532867Y00350934*
X-01531979Y00350379*
X-01531055Y00349888*
X-01530099Y00349462*
X-01529115Y00349103*
X-01528108Y00348815*
X-01527084Y00348597*
X-01526047Y00348451*
X-01525003Y00348379*
X-01524479Y00348369*
D01*
X-01523433Y00348406*
X-01522392Y00348515*
X-01521361Y00348697*
X-01520345Y00348951*
X-01519349Y00349274*
X-01518378Y00349666*
X-01517437Y00350125*
X-01516531Y00350649*
X-01515663Y00351234*
X-01514837Y00351879*
X-01514059Y00352579*
X-01513332Y00353332*
X-01512659Y00354134*
X-01512044Y00354982*
X-01511489Y00355869*
X-01510997Y00356794*
X-01510572Y0035775*
X-01510214Y00358734*
X-01509925Y0035974*
X-01509707Y00360765*
X-01509562Y00361801*
X-01509488Y00362846*
X-01509479Y00363369*
X-01494479Y01452591D02*
D01*
X-01495526Y01452555*
X-01496567Y01452445*
X-01497598Y01452264*
X-01498614Y0145201*
X-0149961Y01451687*
X-0150058Y01451295*
X-01501522Y01450836*
X-01502428Y01450312*
X-01503296Y01449727*
X-01504121Y01449082*
X-01504899Y01448381*
X-01505627Y01447628*
X-015063Y01446826*
X-01506915Y01445979*
X-0150747Y01445091*
X-01507961Y01444167*
X-01508387Y0144321*
X-01508745Y01442227*
X-01509034Y0144122*
X-01509251Y01440196*
X-01509397Y01439159*
X-0150947Y01438115*
X-01509479Y01437591*
X-01479479D02*
D01*
X-01479516Y01438638*
X-01479625Y01439679*
X-01479807Y0144071*
X-01480061Y01441726*
X-01480384Y01442722*
X-01480776Y01443692*
X-01481235Y01444633*
X-01481759Y0144554*
X-01482344Y01446408*
X-01482989Y01447233*
X-01483689Y01448011*
X-01484442Y01448739*
X-01485244Y01449412*
X-01486092Y01450027*
X-01486979Y01450582*
X-01487904Y01451073*
X-0148886Y01451499*
X-01489844Y01451857*
X-0149085Y01452146*
X-01491875Y01452363*
X-01492911Y01452509*
X-01493956Y01452582*
X-01494479Y01452591*
X-01479479Y00363369D02*
D01*
X-01479443Y00362323*
X-01479333Y00361282*
X-01479151Y00360251*
X-01478898Y00359235*
X-01478575Y00358239*
X-01478182Y00357268*
X-01477723Y00356327*
X-014772Y00355421*
X-01476615Y00354553*
X-0147597Y00353728*
X-01475269Y0035295*
X-01474516Y00352222*
X-01473714Y00351549*
X-01472867Y00350934*
X-01471979Y00350379*
X-01471055Y00349888*
X-01470098Y00349462*
X-01469115Y00349103*
X-01468108Y00348815*
X-01467084Y00348597*
X-01466047Y00348451*
X-01465003Y00348379*
X-01464479Y00348369*
D01*
X-01463433Y00348406*
X-01462392Y00348515*
X-01461361Y00348697*
X-01460345Y00348951*
X-01459349Y00349274*
X-01458378Y00349666*
X-01457437Y00350125*
X-0145653Y00350649*
X-01455663Y00351234*
X-01454838Y00351879*
X-0145406Y00352579*
X-01453332Y00353332*
X-01452659Y00354134*
X-01452044Y00354982*
X-01451489Y00355869*
X-01450997Y00356794*
X-01450572Y0035775*
X-01450214Y00358734*
X-01449925Y0035974*
X-01449707Y00360765*
X-01449561Y00361801*
X-01449489Y00362846*
X-01449479Y00363369*
X-01419479Y01426652D02*
D01*
X-01419516Y01427699*
X-01419625Y0142874*
X-01419807Y01429771*
X-0142006Y01430787*
X-01420384Y01431783*
X-01420776Y01432753*
X-01421235Y01433694*
X-01421759Y01434601*
X-01422344Y01435469*
X-01422989Y01436294*
X-01423689Y01437072*
X-01424442Y014378*
X-01425245Y01438473*
X-01426091Y01439088*
X-01426979Y01439643*
X-01427904Y01440134*
X-0142886Y0144056*
X-01429844Y01440918*
X-01430851Y01441207*
X-01431875Y01441425*
X-01432912Y0144157*
X-01433956Y01441643*
X-01435003*
X-01436047Y0144157*
X-01437084Y01441425*
X-01438108Y01441207*
X-01439115Y01440918*
X-01440098Y0144056*
X-01441055Y01440134*
X-01441979Y01439643*
X-01442867Y01439088*
X-01443714Y01438473*
X-01444516Y014378*
X-01445269Y01437072*
X-0144597Y01436294*
X-01446615Y01435469*
X-014472Y01434601*
X-01447724Y01433694*
X-01448183Y01432753*
X-01448575Y01431783*
X-01448898Y01430787*
X-01449152Y01429771*
X-01449333Y0142874*
X-01449443Y01427699*
X-01449479Y01426652*
X-01419479Y00393369D02*
D01*
X-01419443Y00392323*
X-01419333Y00391282*
X-01419152Y00390251*
X-01418898Y00389235*
X-01418575Y00388239*
X-01418183Y00387268*
X-01417724Y00386327*
X-014172Y00385421*
X-01416615Y00384553*
X-0141597Y00383727*
X-01415269Y00382949*
X-01414516Y00382222*
X-01413714Y00381549*
X-01412867Y00380934*
X-01411979Y00380379*
X-01411055Y00379887*
X-01410099Y00379462*
X-01409115Y00379104*
X-01408108Y00378815*
X-01407084Y00378597*
X-01406047Y00378452*
X-01405003Y00378378*
X-01403956*
X-01402911Y00378452*
X-01401875Y00378597*
X-01400851Y00378815*
X-01399844Y00379104*
X-0139886Y00379462*
X-01397904Y00379887*
X-01396979Y00380379*
X-01396091Y00380934*
X-01395244Y00381549*
X-01394442Y00382222*
X-01393689Y00382949*
X-01392989Y00383727*
X-01392344Y00384553*
X-01391759Y00385421*
X-01391235Y00386327*
X-01390776Y00387268*
X-01390384Y00388239*
X-0139006Y00389235*
X-01389807Y00390251*
X-01389625Y00391282*
X-01389516Y00392323*
X-01389479Y00393369*
X-01359479Y01409024D02*
D01*
X-01359516Y01410071*
X-01359625Y01411112*
X-01359807Y01412143*
X-01360061Y01413159*
X-01360384Y01414155*
X-01360776Y01415125*
X-01361235Y01416067*
X-01361759Y01416973*
X-01362344Y01417841*
X-01362989Y01418666*
X-01363689Y01419444*
X-01364442Y01420172*
X-01365244Y01420845*
X-01366092Y0142146*
X-01366979Y01422015*
X-01367904Y01422506*
X-0136886Y01422932*
X-01369844Y0142329*
X-0137085Y01423579*
X-01371875Y01423797*
X-01372911Y01423942*
X-01373956Y01424015*
X-01375003*
X-01376047Y01423942*
X-01377084Y01423797*
X-01378108Y01423579*
X-01379115Y0142329*
X-01380099Y01422932*
X-01381055Y01422506*
X-01381979Y01422015*
X-01382867Y0142146*
X-01383714Y01420845*
X-01384516Y01420172*
X-0138527Y01419444*
X-0138597Y01418666*
X-01386615Y01417841*
X-013872Y01416973*
X-01387724Y01416067*
X-01388183Y01415125*
X-01388575Y01414155*
X-01388898Y01413159*
X-01389152Y01412143*
X-01389333Y01411112*
X-01389443Y01410071*
X-01389479Y01409024*
X-01359479Y00393369D02*
D01*
X-01359443Y00392323*
X-01359333Y00391282*
X-01359151Y00390251*
X-01358898Y00389235*
X-01358575Y00388239*
X-01358182Y00387268*
X-01357723Y00386327*
X-013572Y00385421*
X-01356615Y00384553*
X-0135597Y00383727*
X-0135527Y00382949*
X-01354516Y00382222*
X-01353714Y00381549*
X-01352867Y00380934*
X-01351979Y00380379*
X-01351055Y00379887*
X-01350098Y00379462*
X-01349115Y00379104*
X-01348108Y00378815*
X-01347084Y00378597*
X-01346047Y00378452*
X-01345003Y00378378*
X-01343956*
X-01342911Y00378452*
X-01341875Y00378597*
X-01340851Y00378815*
X-01339844Y00379104*
X-0133886Y00379462*
X-01337904Y00379887*
X-01336979Y00380379*
X-01336092Y00380934*
X-01335244Y00381549*
X-01334442Y00382222*
X-01333689Y00382949*
X-01332989Y00383727*
X-01332344Y00384553*
X-01331759Y00385421*
X-01331235Y00386327*
X-01330776Y00387268*
X-01330384Y00388239*
X-0133006Y00389235*
X-01329807Y00390251*
X-01329625Y00391282*
X-01329516Y00392323*
X-01329479Y00393369*
X-01299479Y01384039D02*
D01*
X-01299516Y01385086*
X-01299625Y01386127*
X-01299807Y01387158*
X-0130006Y01388174*
X-01300384Y0138917*
X-01300776Y0139014*
X-01301235Y01391082*
X-01301759Y01391988*
X-01302344Y01392856*
X-01302989Y01393681*
X-01303689Y01394459*
X-01304442Y01395186*
X-01305245Y0139586*
X-01306091Y01396475*
X-01306979Y0139703*
X-01307904Y01397521*
X-0130886Y01397947*
X-01309844Y01398305*
X-01310851Y01398594*
X-01311875Y01398812*
X-01312912Y01398957*
X-01313956Y0139903*
X-01315003*
X-01316047Y01398957*
X-01317084Y01398812*
X-01318108Y01398594*
X-01319115Y01398305*
X-01320098Y01397947*
X-01321055Y01397521*
X-01321979Y0139703*
X-01322867Y01396475*
X-01323714Y0139586*
X-01324516Y01395186*
X-01325269Y01394459*
X-0132597Y01393681*
X-01326615Y01392856*
X-013272Y01391988*
X-01327724Y01391082*
X-01328183Y0139014*
X-01328575Y0138917*
X-01328898Y01388174*
X-01329152Y01387158*
X-01329333Y01386127*
X-01329443Y01385086*
X-01329479Y01384039*
X-01299479Y00423369D02*
D01*
X-01299443Y00422323*
X-01299333Y00421282*
X-01299152Y00420251*
X-01298898Y00419235*
X-01298575Y00418239*
X-01298183Y00417268*
X-01297724Y00416327*
X-012972Y00415421*
X-01296615Y00414553*
X-0129597Y00413728*
X-01295269Y00412949*
X-01294516Y00412222*
X-01293714Y00411549*
X-01292867Y00410934*
X-01291979Y00410379*
X-01291055Y00409887*
X-01290099Y00409462*
X-01289115Y00409104*
X-01288108Y00408815*
X-01287084Y00408597*
X-01286047Y00408452*
X-01285003Y00408378*
X-01283956*
X-01282911Y00408452*
X-01281875Y00408597*
X-01280851Y00408815*
X-01279844Y00409104*
X-0127886Y00409462*
X-01277904Y00409887*
X-01276979Y00410379*
X-01276091Y00410934*
X-01275244Y00411549*
X-01274442Y00412222*
X-01273689Y00412949*
X-01272989Y00413728*
X-01272344Y00414553*
X-01271759Y00415421*
X-01271235Y00416327*
X-01270776Y00417268*
X-01270384Y00418239*
X-0127006Y00419235*
X-01269807Y00420251*
X-01269625Y00421282*
X-01269516Y00422323*
X-01269479Y00423369*
X-01239479Y01350581D02*
D01*
X-01239516Y01351628*
X-01239625Y01352669*
X-01239807Y013537*
X-01240061Y01354716*
X-01240384Y01355712*
X-01240776Y01356682*
X-01241235Y01357623*
X-01241759Y0135853*
X-01242344Y01359398*
X-01242989Y01360223*
X-01243689Y01361001*
X-01244443Y01361729*
X-01245244Y01362402*
X-01246091Y01363017*
X-01246979Y01363572*
X-01247904Y01364063*
X-0124886Y01364489*
X-01249844Y01364847*
X-0125085Y01365136*
X-01251875Y01365353*
X-01252911Y01365499*
X-01253956Y01365572*
X-01255003*
X-01256047Y01365499*
X-01257084Y01365353*
X-01258108Y01365136*
X-01259115Y01364847*
X-01260099Y01364489*
X-01261055Y01364063*
X-01261979Y01363572*
X-01262867Y01363017*
X-01263714Y01362402*
X-01264516Y01361729*
X-0126527Y01361001*
X-0126597Y01360223*
X-01266615Y01359398*
X-012672Y0135853*
X-01267724Y01357623*
X-01268183Y01356682*
X-01268575Y01355712*
X-01268898Y01354716*
X-01269152Y013537*
X-01269334Y01352669*
X-01269443Y01351628*
X-01269479Y01350581*
X-01239479Y00483369D02*
D01*
X-01239443Y00482323*
X-01239333Y00481282*
X-01239152Y00480251*
X-01238898Y00479235*
X-01238575Y00478239*
X-01238182Y00477268*
X-01237723Y00476327*
X-012372Y00475421*
X-01236615Y00474553*
X-0123597Y00473728*
X-0123527Y0047295*
X-01234516Y00472222*
X-01233714Y00471549*
X-01232867Y00470934*
X-01231979Y00470379*
X-01231055Y00469888*
X-01230098Y00469462*
X-01229115Y00469103*
X-01228108Y00468815*
X-01227084Y00468597*
X-01226047Y00468451*
X-01225003Y00468379*
X-01223956*
X-01222911Y00468451*
X-01221875Y00468597*
X-01220851Y00468815*
X-01219844Y00469103*
X-0121886Y00469462*
X-01217904Y00469888*
X-01216979Y00470379*
X-01216092Y00470934*
X-01215244Y00471549*
X-01214442Y00472222*
X-01213689Y0047295*
X-01212989Y00473728*
X-01212344Y00474553*
X-01211759Y00475421*
X-01211235Y00476327*
X-01210776Y00477268*
X-01210384Y00478239*
X-0121006Y00479235*
X-01209807Y00480251*
X-01209625Y00481282*
X-01209516Y00482323*
X-01209479Y00483369*
X-01179479Y01306767D02*
D01*
X-01179516Y01307814*
X-01179625Y01308855*
X-01179807Y01309886*
X-0118006Y01310902*
X-01180384Y01311898*
X-01180776Y01312868*
X-01181235Y01313809*
X-01181759Y01314716*
X-01182344Y01315584*
X-01182989Y01316409*
X-01183689Y01317187*
X-01184442Y01317915*
X-01185245Y01318587*
X-01186091Y01319203*
X-01186979Y01319758*
X-01187904Y01320249*
X-0118886Y01320675*
X-01189844Y01321033*
X-01190851Y01321322*
X-01191875Y01321539*
X-01192912Y01321685*
X-01193956Y01321758*
X-01195003*
X-01196047Y01321685*
X-01197084Y01321539*
X-01198108Y01321322*
X-01199115Y01321033*
X-01200098Y01320675*
X-01201055Y01320249*
X-01201979Y01319758*
X-01202867Y01319203*
X-01203714Y01318587*
X-01204516Y01317915*
X-01205269Y01317187*
X-0120597Y01316409*
X-01206615Y01315584*
X-012072Y01314716*
X-01207724Y01313809*
X-01208183Y01312868*
X-01208575Y01311898*
X-01208898Y01310902*
X-01209152Y01309886*
X-01209333Y01308855*
X-01209443Y01307814*
X-01209479Y01306767*
X-01179479Y00543369D02*
D01*
X-01179443Y00542323*
X-01179333Y00541282*
X-01179152Y00540251*
X-01178898Y00539235*
X-01178575Y00538239*
X-01178183Y00537268*
X-01177724Y00536327*
X-011772Y00535421*
X-01176615Y00534553*
X-0117597Y00533728*
X-01175269Y00532949*
X-01174516Y00532222*
X-01173714Y00531549*
X-01172867Y00530934*
X-01171979Y00530379*
X-01171055Y00529887*
X-01170099Y00529462*
X-01169115Y00529104*
X-01168108Y00528815*
X-01167084Y00528597*
X-01166047Y00528452*
X-01165003Y00528378*
X-01163956*
X-01162911Y00528452*
X-01161875Y00528597*
X-01160851Y00528815*
X-01159844Y00529104*
X-0115886Y00529462*
X-01157904Y00529887*
X-01156979Y00530379*
X-01156091Y00530934*
X-01155244Y00531549*
X-01154442Y00532222*
X-01153689Y00532949*
X-01152989Y00533728*
X-01152344Y00534553*
X-01151759Y00535421*
X-01151235Y00536327*
X-01150776Y00537268*
X-01150384Y00538239*
X-0115006Y00539235*
X-01149807Y00540251*
X-01149625Y00541282*
X-01149516Y00542323*
X-01149479Y00543369*
X-01119479Y01249148D02*
D01*
X-01119516Y01250195*
X-01119625Y01251236*
X-01119807Y01252267*
X-01120061Y01253283*
X-01120384Y01254279*
X-01120776Y01255249*
X-01121235Y01256191*
X-01121759Y01257097*
X-01122344Y01257965*
X-01122989Y0125879*
X-01123689Y01259568*
X-01124443Y01260295*
X-01125244Y01260969*
X-01126091Y01261584*
X-01126979Y01262139*
X-01127904Y0126263*
X-0112886Y01263056*
X-01129844Y01263414*
X-0113085Y01263703*
X-01131875Y01263921*
X-01132911Y01264066*
X-01133956Y01264139*
X-01135003*
X-01136047Y01264066*
X-01137084Y01263921*
X-01138108Y01263703*
X-01139115Y01263414*
X-01140099Y01263056*
X-01141055Y0126263*
X-01141979Y01262139*
X-01142867Y01261584*
X-01143714Y01260969*
X-01144516Y01260295*
X-01145269Y01259568*
X-0114597Y0125879*
X-01146615Y01257965*
X-011472Y01257097*
X-01147724Y01256191*
X-01148183Y01255249*
X-01148575Y01254279*
X-01148898Y01253283*
X-01149152Y01252267*
X-01149333Y01251236*
X-01149443Y01250195*
X-01149479Y01249148*
X-01119479Y00603369D02*
D01*
X-01119443Y00602323*
X-01119333Y00601282*
X-01119152Y00600251*
X-01118898Y00599235*
X-01118575Y00598239*
X-01118182Y00597268*
X-01117724Y00596327*
X-011172Y0059542*
X-01116615Y00594553*
X-0111597Y00593728*
X-0111527Y0059295*
X-01114516Y00592222*
X-01113714Y00591549*
X-01112867Y00590934*
X-01111979Y00590379*
X-01111055Y00589888*
X-01110098Y00589462*
X-01109115Y00589103*
X-01108108Y00588815*
X-01107084Y00588597*
X-01106047Y00588451*
X-01105003Y00588379*
X-01103956*
X-01102911Y00588451*
X-01101875Y00588597*
X-0110085Y00588815*
X-01099844Y00589103*
X-0109886Y00589462*
X-01097904Y00589888*
X-01096979Y00590379*
X-01096092Y00590934*
X-01095244Y00591549*
X-01094442Y00592222*
X-01093689Y0059295*
X-01092989Y00593728*
X-01092344Y00594553*
X-01091759Y0059542*
X-01091235Y00596327*
X-01090776Y00597268*
X-01090384Y00598239*
X-01090061Y00599235*
X-01089807Y00600251*
X-01089625Y00601282*
X-01089516Y00602323*
X-01089479Y00603369*
X-01059479Y01170215D02*
D01*
X-01059516Y01171262*
X-01059625Y01172303*
X-01059807Y01173334*
X-0106006Y0117435*
X-01060384Y01175346*
X-01060776Y01176316*
X-01061235Y01177257*
X-01061759Y01178164*
X-01062344Y01179032*
X-01062989Y01179857*
X-01063689Y01180635*
X-01064442Y01181363*
X-01065245Y01182035*
X-01066092Y01182651*
X-01066979Y01183206*
X-01067904Y01183697*
X-0106886Y01184123*
X-01069844Y01184481*
X-01070851Y0118477*
X-01071875Y01184987*
X-01072912Y01185133*
X-01073956Y01185206*
X-01075003*
X-01076047Y01185133*
X-01077084Y01184987*
X-01078108Y0118477*
X-01079115Y01184481*
X-01080098Y01184123*
X-01081055Y01183697*
X-01081979Y01183206*
X-01082867Y01182651*
X-01083714Y01182035*
X-01084516Y01181363*
X-01085269Y01180635*
X-0108597Y01179857*
X-01086615Y01179032*
X-010872Y01178164*
X-01087724Y01177257*
X-01088182Y01176316*
X-01088575Y01175346*
X-01088898Y0117435*
X-01089152Y01173334*
X-01089333Y01172303*
X-01089443Y01171262*
X-01089479Y01170215*
X-01059479Y00753369D02*
D01*
X-01059443Y00752323*
X-01059333Y00751282*
X-01059152Y00750251*
X-01058898Y00749235*
X-01058575Y00748239*
X-01058183Y00747268*
X-01057724Y00746327*
X-010572Y00745421*
X-01056615Y00744552*
X-0105597Y00743728*
X-01055269Y0074295*
X-01054516Y00742222*
X-01053714Y00741549*
X-01052867Y00740934*
X-01051979Y00740379*
X-01051055Y00739888*
X-01050098Y00739462*
X-01049115Y00739103*
X-01048108Y00738815*
X-01047084Y00738597*
X-01046047Y00738452*
X-01045003Y00738379*
X-01043956*
X-01042912Y00738452*
X-01041875Y00738597*
X-01040851Y00738815*
X-01039844Y00739103*
X-0103886Y00739462*
X-01037904Y00739888*
X-01036979Y00740379*
X-01036091Y00740934*
X-01035245Y00741549*
X-01034442Y00742222*
X-01033689Y0074295*
X-01032989Y00743728*
X-01032344Y00744552*
X-01031759Y00745421*
X-01031235Y00746327*
X-01030776Y00747268*
X-01030384Y00748239*
X-0103006Y00749235*
X-01029807Y00750251*
X-01029625Y00751282*
X-01029516Y00752323*
X-01029479Y00753369*
X-00999479Y01044896D02*
D01*
X-00999517Y01045943*
X-00999627Y01046984*
X-0099981Y01048015*
X-01000065Y0104903*
X-01000389Y01050026*
X-01000782Y01050996*
X-01001242Y01051937*
X-01001767Y01052843*
X-01002353Y0105371*
X-01002998Y01054535*
X-010037Y01055312*
X-01004454Y01056039*
X-01005256Y01056711*
X-01006104Y01057325*
X-01006992Y01057879*
X-01007917Y0105837*
X-01008874Y01058795*
X-01009858Y01059152*
X-01010865Y01059439*
X-0101189Y01059656*
X-01012926Y01059801*
X-01013971Y01059873*
X-01015018Y01059872*
X-01016062Y01059798*
X-01017099Y01059651*
X-01018123Y01059432*
X-01019129Y01059143*
X-01020112Y01058784*
X-01021068Y01058357*
X-01021992Y01057864*
X-0102288Y01057309*
X-01023726Y01056692*
X-01024528Y01056018*
X-0102528Y01055291*
X-0102598Y01054512*
X-01026624Y01053686*
X-01027208Y01052818*
X-01027731Y0105191*
X-01028189Y01050969*
X-0102858Y01049998*
X-01028902Y01049001*
X-01029155Y01047985*
X-01029336Y01046954*
X-01029444Y01045913*
X-01029479Y01044881*
X-01014479Y00708369D02*
D01*
X-01013433Y00708406*
X-01012392Y00708515*
X-01011361Y00708697*
X-01010345Y0070895*
X-01009349Y00709274*
X-01008378Y00709666*
X-01007437Y00710125*
X-01006531Y00710649*
X-01005663Y00711234*
X-01004837Y00711879*
X-01004059Y00712579*
X-01003332Y00713332*
X-01002659Y00714134*
X-01002044Y00714982*
X-01001489Y00715869*
X-01000997Y00716794*
X-01000572Y0071775*
X-01000213Y00718734*
X-00999925Y00719741*
X-00999707Y00720765*
X-00999562Y00721801*
X-00999488Y00722846*
X-00999479Y00723345*
X-01044479Y00708369D02*
D01*
X-01045526Y00708333*
X-01046567Y00708223*
X-01047598Y00708042*
X-01048614Y00707788*
X-0104961Y00707465*
X-0105058Y00707073*
X-01051521Y00706614*
X-01052428Y0070609*
X-01053296Y00705505*
X-01054121Y0070486*
X-01054899Y00704159*
X-01055627Y00703406*
X-010563Y00702604*
X-01056915Y00701757*
X-0105747Y00700869*
X-01057961Y00699945*
X-01058387Y00698988*
X-01058745Y00698005*
X-01059034Y00696998*
X-01059251Y00695974*
X-01059397Y00694937*
X-0105947Y00693893*
X-01059479Y00693369*
X-01074479Y00558369D02*
D01*
X-01073433Y00558406*
X-01072392Y00558515*
X-01071361Y00558697*
X-01070345Y0055895*
X-01069349Y00559274*
X-01068378Y00559666*
X-01067437Y00560125*
X-01066531Y00560649*
X-01065663Y00561234*
X-01064838Y00561879*
X-0106406Y00562579*
X-01063332Y00563332*
X-01062659Y00564135*
X-01062044Y00564982*
X-01061489Y00565869*
X-01060997Y00566794*
X-01060572Y0056775*
X-01060214Y00568734*
X-01059925Y00569741*
X-01059707Y00570765*
X-01059562Y00571802*
X-01059489Y00572846*
X-01059479Y0057335*
X-01104479Y00558369D02*
D01*
X-01105526Y00558333*
X-01106567Y00558223*
X-01107598Y00558042*
X-01108614Y00557788*
X-0110961Y00557465*
X-0111058Y00557073*
X-01111522Y00556614*
X-01112428Y0055609*
X-01113296Y00555505*
X-01114121Y0055486*
X-01114899Y00554159*
X-01115626Y00553406*
X-011163Y00552604*
X-01116915Y00551757*
X-0111747Y00550869*
X-01117961Y00549945*
X-01118387Y00548988*
X-01118745Y00548005*
X-01119034Y00546998*
X-01119252Y00545974*
X-01119397Y00544937*
X-0111947Y00543893*
X-01119479Y00543369*
X-01134479Y00498369D02*
D01*
X-01133433Y00498406*
X-01132392Y00498515*
X-01131361Y00498697*
X-01130345Y0049895*
X-01129349Y00499274*
X-01128378Y00499666*
X-01127437Y00500125*
X-01126531Y00500649*
X-01125662Y00501234*
X-01124837Y00501879*
X-01124059Y00502579*
X-01123332Y00503333*
X-01122659Y00504134*
X-01122044Y00504981*
X-01121489Y00505869*
X-01120998Y00506794*
X-01120572Y0050775*
X-01120213Y00508734*
X-01119925Y00509741*
X-01119707Y00510765*
X-01119562Y00511801*
X-01119488Y00512846*
X-01119479Y00513352*
X-01164479Y00498369D02*
D01*
X-01165526Y00498333*
X-01166567Y00498223*
X-01167598Y00498042*
X-01168614Y00497788*
X-0116961Y00497465*
X-0117058Y00497073*
X-01171521Y00496614*
X-01172428Y0049609*
X-01173296Y00495505*
X-01174121Y0049486*
X-01174899Y0049416*
X-01175627Y00493406*
X-01176299Y00492604*
X-01176915Y00491757*
X-0117747Y00490869*
X-01177961Y00489945*
X-01178387Y00488988*
X-01178745Y00488005*
X-01179034Y00486998*
X-01179251Y00485974*
X-01179397Y00484937*
X-0117947Y00483893*
X-01179479Y00483369*
X-01194479Y00438369D02*
D01*
X-01193433Y00438406*
X-01192392Y00438515*
X-01191361Y00438697*
X-01190345Y0043895*
X-01189349Y00439274*
X-01188378Y00439666*
X-01187437Y00440125*
X-01186531Y00440649*
X-01185663Y00441234*
X-01184838Y00441879*
X-0118406Y00442579*
X-01183332Y00443332*
X-01182659Y00444135*
X-01182044Y00444982*
X-01181489Y00445869*
X-01180997Y00446794*
X-01180572Y0044775*
X-01180214Y00448734*
X-01179925Y00449741*
X-01179707Y00450765*
X-01179562Y00451801*
X-01179489Y00452846*
X-01179479Y00453355*
X-01224479Y00438369D02*
D01*
X-01225526Y00438333*
X-01226567Y00438223*
X-01227598Y00438042*
X-01228614Y00437788*
X-0122961Y00437465*
X-0123058Y00437073*
X-01231522Y00436614*
X-01232428Y0043609*
X-01233296Y00435505*
X-01234121Y0043486*
X-01234899Y00434159*
X-01235626Y00433406*
X-012363Y00432604*
X-01236915Y00431757*
X-0123747Y00430869*
X-01237961Y00429945*
X-01238387Y00428988*
X-01238745Y00428005*
X-01239034Y00426998*
X-01239252Y00425974*
X-01239397Y00424937*
X-0123947Y00423893*
X-01239479Y00423369*
Y00393341D02*
D01*
Y00393345*
Y00393348*
Y00393352*
Y00393355*
Y00393358*
X-01284479Y00378369D02*
D01*
X-01285526Y00378333*
X-01286567Y00378223*
X-01287598Y00378042*
X-01288614Y00377788*
X-0128961Y00377465*
X-0129058Y00377073*
X-01291521Y00376614*
X-01292428Y0037609*
X-01293296Y00375505*
X-01294121Y0037486*
X-01294899Y0037416*
X-01295627Y00373406*
X-01296299Y00372604*
X-01296915Y00371757*
X-0129747Y00370869*
X-01297961Y00369945*
X-01298387Y00368988*
X-01298745Y00368005*
X-01299034Y00366998*
X-01299251Y00365974*
X-01299397Y00364937*
X-0129947Y00363893*
X-01299479Y00363369*
X-01314479Y00348369D02*
D01*
X-01313433Y00348406*
X-01312392Y00348515*
X-01311361Y00348697*
X-01310345Y00348951*
X-01309349Y00349274*
X-01308378Y00349666*
X-01307437Y00350125*
X-01306531Y00350649*
X-01305663Y00351234*
X-01304838Y00351879*
X-01304059Y00352579*
X-01303332Y00353332*
X-01302659Y00354134*
X-01302044Y00354982*
X-01301489Y00355869*
X-01300997Y00356794*
X-01300572Y0035775*
X-01300214Y00358734*
X-01299925Y0035974*
X-01299707Y00360765*
X-01299562Y00361801*
X-01299488Y00362846*
X-01299479Y00363369*
X-01404479Y00348369D02*
D01*
X-01405526Y00348333*
X-01406567Y00348223*
X-01407598Y00348041*
X-01408614Y00347788*
X-0140961Y00347465*
X-0141058Y00347072*
X-01411521Y00346613*
X-01412428Y0034609*
X-01413296Y00345505*
X-01414121Y0034486*
X-01414899Y0034416*
X-01415627Y00343406*
X-01416299Y00342604*
X-01416915Y00341757*
X-0141747Y00340869*
X-01417961Y00339945*
X-01418387Y00338988*
X-01418745Y00338005*
X-01419034Y00336998*
X-01419251Y00335974*
X-01419397Y00334937*
X-0141947Y00333893*
X-01419479Y00333369*
X-01434479Y00318369D02*
D01*
X-01433433Y00318406*
X-01432392Y00318515*
X-01431361Y00318697*
X-01430345Y0031895*
X-01429349Y00319274*
X-01428378Y00319666*
X-01427437Y00320125*
X-01426531Y00320649*
X-01425663Y00321234*
X-01424838Y00321879*
X-01424059Y00322579*
X-01423332Y00323332*
X-01422659Y00324134*
X-01422044Y00324982*
X-01421489Y00325869*
X-01420997Y00326794*
X-01420572Y0032775*
X-01420214Y00328734*
X-01419925Y00329741*
X-01419707Y00330765*
X-01419562Y00331801*
X-01419488Y00332846*
X-01419479Y00333369*
X-01524479Y00318369D02*
D01*
X-01525526Y00318333*
X-01526567Y00318223*
X-01527598Y00318042*
X-01528614Y00317788*
X-0152961Y00317465*
X-0153058Y00317073*
X-01531521Y00316614*
X-01532428Y0031609*
X-01533296Y00315505*
X-01534121Y0031486*
X-01534899Y00314159*
X-01535627Y00313406*
X-01536299Y00312604*
X-01536915Y00311757*
X-0153747Y00310869*
X-01537961Y00309945*
X-01538387Y00308988*
X-01538745Y00308005*
X-01539034Y00306998*
X-01539251Y00305974*
X-01539397Y00304937*
X-0153947Y00303893*
X-01539479Y00303369*
Y0146558D02*
D01*
D01*
D01*
X-01501979Y0012065D02*
Y00174784D01*
X-01539479Y00212284D02*
X-01501979Y00174784D01*
X-01539479Y00212284D02*
Y0029337D01*
X-01607129Y0012065D02*
Y0017219D01*
X-01569479Y0020984*
Y00363369D02*
Y0146558D01*
X-01584479Y00348369D02*
D01*
X-01599479Y00363369D02*
Y01437591D01*
X-01614479Y01452591D02*
D01*
X-01629479Y00363369D02*
Y01437591D01*
X-01644479Y00348369D02*
D01*
X-01659479Y01426652D02*
Y00363369D01*
X-01689479Y00393369D02*
Y01426652D01*
X-01719479Y01409024D02*
Y00393369D01*
X-01749479D02*
Y01409024D01*
X-01779479Y01384039D02*
Y00393369D01*
X-01809479Y00423369D02*
Y01384039D01*
X-01839479Y01350581D02*
Y00423369D01*
X-01869479Y00483369D02*
Y01350581D01*
X-01899479Y01306767D02*
Y00483369D01*
X-01929479Y00543369D02*
Y01306767D01*
X-01959479Y01249148D02*
Y00543369D01*
X-01989479Y00603369D02*
Y01249148D01*
X-02019479Y01170215D02*
Y00603369D01*
X-02049479Y00753369D02*
Y01170215D01*
X-02079479Y01044881D02*
Y00753369D01*
X-02109479Y00723369D02*
Y01044881D01*
X-02094479Y00708369D02*
X-02064479D01*
X-02049479Y00573369D02*
Y00693369D01*
X-02034479Y00558369D02*
X-02004479D01*
X-01989479Y00513369D02*
Y00543369D01*
X-01974479Y00498369D02*
X-01944479D01*
X-01929479Y00453369D02*
Y00483369D01*
X-01914479Y00438369D02*
X-01884479D01*
X-01869479Y00393369D02*
Y00423369D01*
X-01854479Y00378369D02*
X-01824479D01*
X-01794479Y00348369D02*
X-01704479D01*
X-01674479Y00318369D02*
X-01584479D01*
X-01569479Y0029337D02*
Y00303369D01*
Y0020984D02*
Y0029337D01*
X-01539479Y01440579D02*
Y0146558D01*
Y00363369D02*
Y01440579D01*
X-01524479Y00348369D02*
D01*
X-01509479Y01437591D02*
Y00363369D01*
X-01494479Y01452591D02*
D01*
X-01479479Y01437591D02*
Y00363369D01*
X-01464479Y00348369D02*
D01*
X-01449479Y00363369D02*
Y01426652D01*
X-01419479D02*
Y00393369D01*
X-01389479D02*
Y01409024D01*
X-01359479D02*
Y00393369D01*
X-01329479D02*
Y01384039D01*
X-01299479D02*
Y00423369D01*
X-01269479D02*
Y01350581D01*
X-01239479D02*
Y00483369D01*
X-01209479D02*
Y01306767D01*
X-01179479D02*
Y00543369D01*
X-01149479D02*
Y01249148D01*
X-01119479D02*
Y00603369D01*
X-01089479D02*
Y01170215D01*
X-01059479D02*
Y00753369D01*
X-01029479D02*
Y01044881D01*
X-00999479Y01044896D02*
Y00723345D01*
X-01044479Y00708369D02*
X-01014479D01*
X-01059479Y0057335D02*
Y00693369D01*
X-01104479Y00558369D02*
X-01074479D01*
X-01119479Y00513352D02*
Y00543369D01*
X-01164479Y00498369D02*
X-01134479D01*
X-01179479Y00453355D02*
Y00483369D01*
X-01224479Y00438369D02*
X-01194479D01*
X-01239479Y00393358D02*
Y00423369D01*
X-01239507Y00378369D02*
X-01239479Y00393341D01*
X-01239507Y00378369D02*
D01*
X-01284479D02*
X-01239507D01*
X-01404479Y00348369D02*
X-01314479D01*
X-01524479Y00318369D02*
X-01434479D01*
X-01539479Y00303369D02*
D01*
Y0029337D02*
Y00303369D01*
G54D16*
X-01258646Y00236804D03*
X-01850312D03*
X-0149347Y01568555D03*
X-01735652Y01547368D03*
X-01373306D03*
X-01615488Y01568555D03*
X-00857143Y0081021D03*
X-00878332Y01052392D03*
Y00690046D03*
X-00857143Y00932228D03*
X-02251815Y0081021D03*
X-02188895Y01167052D03*
X-02230628Y01052392D03*
X-02127885Y01272722D03*
X-02188895Y01167052D03*
X-01152976Y01444625D03*
X-01258646Y01505635D03*
X-00920063Y01167052D03*
X-00981073Y01272722D03*
Y00469715D03*
X-00920063Y00575386D03*
X-01373306Y00195072D03*
X-01152976Y00297813D03*
X-01955982D03*
X-01735652Y00195072D03*
X-02188895Y00575386D03*
X-02127885Y00469715D03*
X-01955982Y01444625D03*
X-01850312Y01505635D03*
X-02230628Y00690046D03*
X-02251815Y00932228D03*
G54D17*
X-02049454Y01366194D03*
X-01059504Y00376244D03*
X-02049454D03*
X-01059504Y01366194D03*
M02*