%FSTAX44Y44*%
%MOMM*%
%SFA1B1*%

%IPPOS*%
%ADD11C,6.999986*%
%ADD12C,1.203198*%
%ADD13C,4.203192*%
%ADD14C,0.203200*%
%LNpcb1-1*%
%LPD*%
G36*
X-01536979Y0012446D02*
Y00054459D01*
X-01641979*
Y0012446*
X-01536979*
G37*
G36*
X-01466979Y00054459D02*
X-01536979D01*
Y0012446*
X-01466979*
Y00054459*
G37*
G54D11*
X-01408941Y00186516D02*
D01*
X-01361533Y00198336*
X-01315065Y00213435*
X-01269764Y00231738*
X-01225849Y00253156*
X-01183536Y00277586*
X-0114303Y00304908*
X-01104528Y00334988*
X-01068219Y00367682*
X-01034278Y00402828*
X-01002872Y00440256*
X-00974154Y00479784*
X-00948262Y00521219*
X-00925324Y0056436*
X-00905451Y00608995*
X-0088874Y00654908*
X-00875273Y00701874*
X-00865114Y00749666*
X-00858315Y00798049*
X-00854906Y0084679*
Y00895649*
X-00858314Y00944389*
X-00865114Y00992773*
X-00875273Y01040565*
X-0088874Y01087531*
X-00905451Y01133444*
X-00925324Y01178079*
X-00948262Y01221219*
X-00974153Y01262654*
X-01002872Y01302182*
X-01034278Y0133961*
X-01068219Y01374757*
X-01104528Y0140745*
X-0114303Y01437531*
X-01183536Y01464853*
X-01225849Y01489282*
X-01269764Y01510701*
X-01315065Y01529004*
X-01361533Y01544102*
X-01408941Y01555922*
X-01457058Y01564407*
X-0150565Y01569514*
X-01554479Y01571219*
X-01603309Y01569514*
X-016519Y01564407*
X-01700017Y01555922*
X-01747425Y01544102*
X-01793893Y01529004*
X-01839195Y01510701*
X-01883109Y01489283*
X-01925423Y01464853*
X-01965929Y01437531*
X-0200443Y0140745*
X-0204074Y01374757*
X-0207468Y01339611*
X-02106086Y01302182*
X-02134805Y01262654*
X-02160697Y01221219*
X-02183635Y01178079*
X-02203508Y01133444*
X-02220219Y01087531*
X-02233686Y01040565*
X-02243844Y00992773*
X-02250644Y00944389*
X-02254053Y00895649*
Y0084679*
X-02250644Y0079805*
X-02243844Y00749666*
X-02233686Y00701874*
X-02220219Y00654908*
X-02203508Y00608995*
X-02183635Y0056436*
X-02160697Y0052122*
X-02134805Y00479785*
X-02106087Y00440257*
X-02074681Y00402828*
X-0204074Y00367682*
X-02004431Y00334989*
X-01965929Y00304908*
X-01925423Y00277586*
X-0188311Y00253156*
X-01839195Y00231738*
X-01793894Y00213435*
X-01747426Y00198337*
X-01700018Y00186517*
X-01700017Y00186516*
G54D12*
X-01258646Y00236804D03*
X-01850312D03*
X-0149347Y01568555D03*
X-01735652Y01547368D03*
X-01373306D03*
X-01615488Y01568555D03*
X-00857143Y0081021D03*
X-00878332Y01052392D03*
Y00690046D03*
X-00857143Y00932228D03*
X-02251815Y0081021D03*
X-02188895Y01167052D03*
X-02230628Y01052392D03*
X-02127885Y01272722D03*
X-02188895Y01167052D03*
X-01152976Y01444625D03*
X-01258646Y01505635D03*
X-00920063Y01167052D03*
X-00981073Y01272722D03*
Y00469715D03*
X-00920063Y00575386D03*
X-01373306Y00195072D03*
X-01152976Y00297813D03*
X-01955982D03*
X-01735652Y00195072D03*
X-02188895Y00575386D03*
X-02127885Y00469715D03*
X-01955982Y01444625D03*
X-01850312Y01505635D03*
X-02230628Y00690046D03*
X-02251815Y00932228D03*
G54D13*
X-02049454Y01366194D03*
X-01059504Y00376244D03*
X-02049454D03*
X-01059504Y01366194D03*
G54D14*
X-01607129Y00087479D03*
X-01502129D03*
M02*